<?xml version="1.0" encoding="utf-8"?>
<!-- Generator: Adobe Illustrator 24.0.1, SVG Export Plug-In . SVG Version: 6.00 Build 0)  -->
<svg version="1.1" id="Layer_1" xmlns="http://www.w3.org/2000/svg" xmlns:xlink="http://www.w3.org/1999/xlink" x="0px" y="0px"
	 viewBox="0 0 1280 1024" style="enable-background:new 0 0 1280 1024;" xml:space="preserve">
<style type="text/css">
	.st0{fill:#FCF07E;stroke:#FCF07E;stroke-width:20;stroke-linecap:round;stroke-miterlimit:10;}
	.st1{fill:#A4DCFF;}
	.st2{fill:#84F784;}
	.st3{fill:#666666;}
	.st4{fill:none;stroke:#666666;stroke-width:9;stroke-linecap:round;stroke-miterlimit:10;}
	.st5{fill:#F4F4F4;}
	.st6{fill:#D3D3D3;}
	.st7{fill:#BEBEBF;}
	.st8{fill:#999999;}
	.st9{fill:#CCCCCC;}
	.st10{fill:#B3B3B3;}
	.st11{fill:#E6E6E6;}
	.st12{fill:none;stroke:#29ABE2;stroke-width:17;stroke-linecap:round;stroke-miterlimit:10;stroke-dasharray:25,35;}
	.st13{fill:none;stroke:#F2F2F2;stroke-width:17;stroke-linecap:round;stroke-miterlimit:10;stroke-dasharray:25,35;}
	.st14{fill:none;stroke:#000000;stroke-width:6;stroke-miterlimit:10;}
	.st15{fill:#FFFFFF;stroke:#FFFFFF;stroke-width:10;stroke-linecap:round;stroke-miterlimit:10;}
	.st16{fill:#FFFFFF;stroke:#E6E6E6;stroke-width:10;stroke-linecap:round;stroke-miterlimit:10;}
	.st17{fill:none;stroke:#F2F2F2;stroke-width:17;stroke-linecap:round;stroke-miterlimit:10;}
	.st18{fill:none;stroke:#CCCCCC;stroke-width:17;stroke-linecap:round;stroke-miterlimit:10;}
	.st19{fill:#FCF07E;stroke:#FCF07E;stroke-width:14;stroke-linecap:round;stroke-miterlimit:10;}
	.st20{fill:none;stroke:#F2F2F2;stroke-width:17;stroke-linecap:round;stroke-miterlimit:10;stroke-dasharray:2,35;}
	.st21{fill:#F7C161;stroke:#999999;stroke-width:8;stroke-miterlimit:10;}
	.st22{fill:#666666;stroke:#999999;stroke-width:8;stroke-linecap:round;stroke-miterlimit:10;}
	.st23{fill:none;stroke:#666666;stroke-width:6;stroke-linecap:round;stroke-miterlimit:10;}
	.st24{opacity:0.65;}
	.st25{fill:#808080;stroke:#4D4D4D;stroke-width:3;stroke-linecap:round;stroke-miterlimit:10;}
	.st26{fill:#999999;stroke:#4D4D4D;stroke-width:3;stroke-linecap:round;stroke-miterlimit:10;}
	.st27{fill:#B3B3B3;stroke:#4D4D4D;stroke-width:3;stroke-linecap:round;stroke-miterlimit:10;}
	.st28{fill:#CCCCCC;stroke:#4D4D4D;stroke-width:3;stroke-linecap:round;stroke-miterlimit:10;}
	.st29{fill:#E6E6E6;stroke:#4D4D4D;stroke-width:3;stroke-linecap:round;stroke-miterlimit:10;}
	.st30{fill:#F2F2F2;stroke:#4D4D4D;stroke-width:3;stroke-linecap:round;stroke-miterlimit:10;}
</style>
<g>
	<g>
		<g>
			<circle class="st1" cx="517.71" cy="575.8" r="384.01"/>
			<path class="st2" d="M749.28,856.34c-4.12-14.98-2.45-30.45-4.16-45.69c-0.51-4.56-1.9-10.12-4.77-14.64
				c-1.77-2.79-2.73-3.83-5.26-6.4c-0.75-0.77-1.53-1.51-2.33-2.23c0,0-2.46-1.93-2.42-1.96c-2.23-1.53-4.58-2.82-6.99-4.06
				c-0.35-0.18-0.59-0.31-0.79-0.42c-0.23-0.06-0.51-0.14-0.91-0.26c-1.38-0.42-2.73-0.91-4.13-1.3c-2.33-0.64-4.7-1.1-7.08-1.54
				c-0.32-0.06-0.58-0.11-0.79-0.15c-0.24-0.01-0.55-0.02-0.97-0.04c-1.23-0.07-2.46-0.2-3.7-0.27
				c-11.56-0.65-23.13,0.51-34.64,1.43c-24.49,1.96-50.13,2.23-71.56-11.64c-6.89-4.45-9.85-13.58-5.48-20.9
				c1.94-3.24,3.79-6.54,5.47-9.92c0.81-1.64,1.59-3.3,2.33-4.97c0.15-0.36,0.41-0.98,0.48-1.15c2.24-5.73,4.05-11.63,5.3-17.66
				c0.26-1.27,0.49-2.55,0.7-3.83c-0.07,0.31,0.3-2.18,0.34-2.6c0.24-2.54,0.39-5.09,0.42-7.65c0.04-2.89-0.06-5.78-0.29-8.66
				c-0.06-0.69-0.14-1.38-0.21-2.06c-0.07-0.52-0.25-1.84-0.33-2.23c-1.01-4.97-2.19-9.83-3.92-14.6c-0.28-0.77-2.31-5.44-0.57-1.62
				c-0.31-0.68-0.6-1.38-0.93-2.05c-1.16-2.34-2.31-4.66-3.61-6.91c-1.1-1.9-2.27-3.76-3.51-5.58c-0.57-0.84-1.18-1.66-1.78-2.48
				c-0.34-0.45-0.84-1.1-1.05-1.34c-3.02-3.46-6.12-6.8-9.58-9.84c-0.78-0.68-1.6-1.32-2.37-2.01c-0.06-0.05-0.09-0.08-0.14-0.13
				c0,0,0,0-0.01,0c-1.54-1.05-3.02-2.16-4.59-3.16c-3.19-2.05-6.53-3.66-9.89-5.39c-0.89-0.29-1.77-0.67-2.66-0.97
				c-1.63-0.56-3.27-1.05-4.94-1.48c-1.62-0.42-3.27-0.66-4.89-1.05c-0.75-0.06-1.5-0.14-2.26-0.19c-1.77-0.1-3.54-0.12-5.3-0.04
				c-0.63,0.03-1.26,0.09-1.89,0.14c-1.33,0.45-2.96,0.54-4.31,0.91c-1.23,0.34-5.96,2.37-2.79,0.83c-1.32,0.63-2.64,1.26-3.91,2.02
				c-0.43,0.25-1.99,1.35-2.84,1.92c-0.8,0.72-2.25,1.98-2.6,2.33c-0.67,0.66-3.09,3.68-2.94,3.32c-1.97,2.89-3.67,5.87-5.24,9.02
				c-0.06,0.12-0.13,0.27-0.2,0.44c-0.22,0.59-0.35,0.94-0.42,1.1c-0.23,0.6-0.45,1.2-0.66,1.8c-0.81,2.37-1.51,4.78-2.11,7.22
				c-1.39,5.64-1.78,8.14-1.19,12.62c0.42,3.19,2.77,10.8,4.29,15.57c4.4,13.78,6.89,27.34,4.08,41.76
				c-2.66,13.7-10.24,29-22.11,36.96c-7.9,5.3-16.96,5.83-25.77,8.55c-0.88,0.27-1.76,0.57-2.63,0.89c0.22-0.03-2.48,1.17-2.67,1.27
				c-2.5,1.35-4.88,2.94-7.22,4.55c-4.5,3.1-6.96,5.09-11.92,9.66c-4.39,4.05-8.52,8.36-12.45,12.85c-1.91,2.18-3.76,4.4-5.57,6.66
				c-2.1,2.62-2.02,2.54-4.4,5.81c-7.46,10.24-14.19,20.98-20.64,31.87c-15.62,26.36-30.1,53.9-47.37,79.29
				c48.1,21.69,101.47,33.78,157.67,33.78c90.8,0,174.22-31.53,239.96-84.22C754.06,869.61,751.18,863.21,749.28,856.34z"/>
			<path class="st2" d="M899.47,534.18C882.74,378.96,773.53,251.47,628.05,207.9c-0.37,1.52-0.7,3.06-0.97,4.6
				c-0.08,0.47-0.14,0.7-0.17,0.78c-0.02,0.26-0.05,0.56-0.08,0.92c-0.15,1.73-0.28,3.45-0.34,5.19c-0.21,6.24-0.06,12.7,1.57,18.76
				c1.39,5.15,2.67,7.28,5.9,12.33c0.31,0.43,0.53,0.73,0.67,0.93c0.45,0.54,0.89,1.09,1.35,1.62c0.61,0.71,1.23,1.4,1.86,2.09
				c1.7,1.88,3.47,3.69,5.21,5.53c3.91,4.13,7.61,8.41,10.9,13.06c6.54,9.22,10.3,21.07,11.2,32.31
				c1.6,19.85-8.66,38.68-17.42,55.75c-2.46,4.79-4.92,9.58-7.17,14.47c-0.37,0.8-0.73,1.62-1.1,2.42
				c-0.12,0.25-0.21,0.46-0.29,0.63c-0.06,0.16-0.13,0.35-0.21,0.57c-0.76,2.02-1.54,4.02-2.21,6.07c-0.78,2.4-1.47,4.83-2.01,7.3
				c-0.22,1.01-0.4,2.03-0.59,3.04c0,0,0,0.01,0,0.01c0,0.07,0,0.11,0,0.18c-0.01,2.02-0.13,4.05-0.14,6.08
				c0,0.53,0.29,2.53,0.26,2.48c0.09,0.45,0.18,0.9,0.29,1.35c0.34,1.44,0.82,2.83,1.25,4.24c0.04,0.12,0.06,0.21,0.09,0.31
				c0.04,0.08,0.09,0.16,0.15,0.28c1.17,2.3,2.43,4.52,3.91,6.64c0.09,0.12,0.44,0.57,0.69,0.88c0.93,1.12,1.91,2.2,2.92,3.24
				c2.05,2.12,4.23,4.11,6.5,5.98c10.1,8.37,21.04,13.54,33.25,13.88c27.3,0.75,54.2-12.47,82.38-13.14
				c20.01-0.47,38.87,5.95,53.85,19.25c11.66,10.35,19.82,24.31,26.72,38.11c6.32,12.64,11.71,25.96,19.76,37.64
				c0.44,0.64,0.9,1.26,1.35,1.89c0.97,1.04,1.85,2.17,2.84,3.2c0.97,1.01,2.02,1.94,3.04,2.9c0.15,0.14,0.27,0.26,0.38,0.37
				c0.13,0.07,0.27,0.16,0.45,0.27c1.37,0.83,2.82,1.57,4.17,2.42c0.5,0.17,0.99,0.36,1.49,0.51c1.52,0.47,3.16,0.6,4.66,1.09
				c-4.18-1.37-0.49-0.09,1.46-0.04c2.03,0.05,4.01-0.16,6.03-0.26c-4.53,0.23,1.39-0.29,2.51-0.53
				C896.11,535.14,897.8,534.68,899.47,534.18z"/>
			<path class="st2" d="M199.71,738.63c27.09,0.82,50.72-2.64,76.75-9.73c25.02-6.81,46.91-14.26,68.15-29.12
				c2.99-2.09,6.75-5.14,10.85-9.48c1.25-1.32,2.43-2.69,3.58-4.09c-0.43,0.43,2.31-3.38,2.78-4.13c1.35-2.19,2.41-4.5,3.65-6.75
				c0.07-0.13,0.13-0.23,0.19-0.33c0.03-0.1,0.06-0.18,0.1-0.31c0.24-0.73,0.55-1.45,0.8-2.18c1.43-4.09,2.35-8.26,3.22-12.5
				c0.12-0.7,0.24-1.41,0.35-2.11c0.11-1.15,0.25-2.3,0.35-3.45c0.18-2.08,0.3-4.17,0.39-6.25c0.2-4.81,0.17-9.62,0.03-14.43
				c-0.32-11.14-1.23-22.25-1.99-33.36c-0.84-12.47-1.44-24.95-2.16-37.43c-0.58-10.1-1.26-20.31-0.46-30.41
				c1.52-19.32,9.01-36.68,26.96-46.03c20.32-10.58,43.58-11.61,65.99-11.26c2.54,0.04,5.09,0.07,7.64-0.03
				c0.95-0.04,3.59-0.48,3.77-0.45c0.8-0.2,1.6-0.39,2.4-0.59c0.12-0.1,0.24-0.21,0.35-0.29c-0.86,0.37,0.94-0.56,1.94-1.29
				c0.02-0.02,0.04-0.03,0.06-0.04c0.81-1.28,1.55-2.58,2.24-3.92c0.16-0.45,0.92-2.22,1.01-2.51c0.32-0.95,0.62-1.91,0.9-2.88
				c0.93-3.18,1.76-6.47,2.3-9.74c-0.15,0.67,0.31-4.05,0.32-4.72c0.02-1.17,0-2.35-0.04-3.52c-0.15-3.88-0.39-5.13-1.12-8.5
				c-1.3-6.01-3.44-12.56-5.79-17.55c-2.64-5.61-7.08-13.18-9.83-16.75c-1.64-2.13-3.45-4.17-5.34-6.09
				c-0.95-0.97-1.96-1.88-2.95-2.81c-0.17-0.06-0.37-0.18-0.58-0.34c-1.6-0.84-4.91-2.86-5.83-3.43c-0.47-0.18-0.95-0.37-1.43-0.54
				c-1.52-0.55-3.06-1.06-4.61-1.53c-7.27-2.25-14.73-3.86-22.2-5.3c-16.52-3.2-33.22-5.35-49.77-8.41
				c-11.89-2.2-27.32-4.39-36.11-13.6c-6.3-6.6-7.54-16.28-2.84-24.19c3.71-6.25,10.34-10.54,16.63-13.84
				c9.4-4.95,19.42-9.24,29.98-10.78c9.96-1.46,19.89-1.18,29.92-1.47c0.25-0.01,0.46-0.01,0.64-0.01c0.03-0.01,0.04-0.02,0.08-0.03
				c0.55-0.18,1.27-0.39,1.93-0.53c0.05-0.03,0.11-0.07,0.18-0.11c0.2-0.15,0.38-0.26,0.53-0.35c0.04-0.06,0.08-0.12,0.12-0.19
				c0.06-0.2,0.11-0.37,0.16-0.51c0.26-0.85,0.53-1.69,0.73-2.57c0.17-0.75,0.31-1.51,0.45-2.26c0.03-0.27,0.06-0.62,0.11-1.08
				c0.07-1.17,0.16-2.34,0.21-3.51c0.07-1.82,0.11-3.65,0.04-5.47c-0.01-0.17-0.39-3.48-0.26-3.07c-0.38-2-0.91-3.97-1.57-5.89
				c-0.13-0.39-1.63-3.67-0.84-2.08c-0.48-0.98-0.96-1.95-1.49-2.9c-4.86-8.85-11.68-16.48-16.24-25.5
				c-6.57-12.99-7.99-25.97-5.87-40.24C240.3,266.73,133.7,408.8,133.7,575.8c0,56.77,12.33,110.65,34.44,159.14
				C178.58,737.14,189.26,738.32,199.71,738.63z"/>
		</g>
		<circle class="st3" cx="364.35" cy="476.42" r="55.21"/>
		<circle class="st3" cx="682.11" cy="476.42" r="55.21"/>
		<path class="st4" d="M601.14,575.8c0,27.78-32.96,50.3-73.61,50.3c-40.66,0-73.61-22.52-73.61-50.3"/>
	</g>
	<g>
		<circle class="st8" cx="648.17" cy="279.99" r="96.11"/>
		<circle class="st9" cx="924.87" cy="217.33" r="153.14"/>
		<circle class="st10" cx="778.07" cy="252.88" r="129.55"/>
		<circle class="st11" cx="907.62" cy="340.89" r="52.1"/>
		<circle class="st10" cx="1061.11" cy="302.17" r="85.19"/>
	</g>
	<g>
		<g>
			<path class="st17" d="M733.49,415.99c0,0,16.01,22.75,38.77,0s40.03,0,40.03,0"/>
			<path class="st17" d="M812.5,415.99c0,0,16.01,22.75,38.77,0c22.75-22.75,40.03,0,40.03,0"/>
		</g>
		<g>
			<path class="st17" d="M891.3,415.99c0,0,16.01,22.75,38.77,0c22.75-22.75,40.03,0,40.03,0"/>
			<path class="st17" d="M970.31,415.99c0,0,16.01,22.75,38.77,0s40.03,0,40.03,0"/>
		</g>
		<path class="st17" d="M1046.37,412.83c0,0,16.01,22.75,38.77,0"/>
	</g>
	<g>
		<g>
			<path class="st18" d="M759.88,473.11c0,0,16.01,22.75,38.77,0c22.75-22.75,40.03,0,40.03,0"/>
			<path class="st18" d="M838.89,473.11c0,0,16.01,22.75,38.77,0c22.75-22.75,40.03,0,40.03,0"/>
		</g>
		<g>
			<path class="st18" d="M917.69,473.11c0,0,16.01,22.75,38.77,0c22.75-22.75,40.03,0,40.03,0"/>
			<path class="st18" d="M996.7,473.11c0,0,16.01,22.75,38.77,0c22.75-22.75,40.03,0,40.03,0"/>
		</g>
		<path class="st18" d="M1072.75,469.96c0,0,16.01,22.75,38.77,0"/>
	</g>
	<g>
		<g>
			<path class="st17" d="M734.25,532.11c0,0,16.01,22.75,38.77,0s40.03,0,40.03,0"/>
			<path class="st17" d="M813.26,532.11c0,0,16.01,22.75,38.77,0s40.03,0,40.03,0"/>
		</g>
		<g>
			<path class="st17" d="M892.06,532.11c0,0,16.01,22.75,38.77,0c22.75-22.75,40.03,0,40.03,0"/>
			<path class="st17" d="M971.07,532.11c0,0,16.01,22.75,38.77,0c22.75-22.75,40.03,0,40.03,0"/>
		</g>
		<path class="st17" d="M1047.13,528.95c0,0,16.01,22.75,38.77,0"/>
	</g>
</g>
</svg>
