<?xml version="1.0" encoding="utf-8"?>
<!-- Generator: Adobe Illustrator 24.0.1, SVG Export Plug-In . SVG Version: 6.00 Build 0)  -->
<svg version="1.1" id="Layer_1" xmlns="http://www.w3.org/2000/svg" xmlns:xlink="http://www.w3.org/1999/xlink" x="0px" y="0px"
	 viewBox="0 0 1280 1024" style="enable-background:new 0 0 1280 1024;" xml:space="preserve">
<style type="text/css">
	.st0{fill:#FCF07E;stroke:#FCF07E;stroke-width:20;stroke-linecap:round;stroke-miterlimit:10;}
	.st1{fill:#A4DCFF;}
	.st2{fill:#84F784;}
	.st3{fill:#666666;}
	.st4{fill:none;stroke:#666666;stroke-width:9;stroke-linecap:round;stroke-miterlimit:10;}
	.st5{fill:#F4F4F4;}
	.st6{fill:#D3D3D3;}
	.st7{fill:#BEBEBF;}
	.st8{fill:#999999;}
	.st9{fill:#CCCCCC;}
	.st10{fill:#B3B3B3;}
	.st11{fill:#E6E6E6;}
	.st12{fill:none;stroke:#29ABE2;stroke-width:17;stroke-linecap:round;stroke-miterlimit:10;stroke-dasharray:25,35;}
	.st13{fill:none;stroke:#F2F2F2;stroke-width:17;stroke-linecap:round;stroke-miterlimit:10;stroke-dasharray:25,35;}
	.st14{fill:none;stroke:#000000;stroke-width:6;stroke-miterlimit:10;}
	.st15{fill:#FFFFFF;stroke:#FFFFFF;stroke-width:10;stroke-linecap:round;stroke-miterlimit:10;}
	.st16{fill:#FFFFFF;stroke:#E6E6E6;stroke-width:10;stroke-linecap:round;stroke-miterlimit:10;}
	.st17{fill:none;stroke:#F2F2F2;stroke-width:17;stroke-linecap:round;stroke-miterlimit:10;}
	.st18{fill:none;stroke:#CCCCCC;stroke-width:17;stroke-linecap:round;stroke-miterlimit:10;}
	.st19{fill:#FCF07E;stroke:#FCF07E;stroke-width:14;stroke-linecap:round;stroke-miterlimit:10;}
</style>
<g>
	<g>
		<circle class="st19" cx="871.37" cy="497.47" r="64.26"/>
		<g>
			<line class="st19" x1="975.69" y1="393.16" x2="930.83" y2="438.01"/>
			<line class="st19" x1="811.91" y1="556.93" x2="767.06" y2="601.79"/>
		</g>
		<g>
			<line class="st19" x1="767.06" y1="393.16" x2="811.91" y2="438.01"/>
			<line class="st19" x1="930.83" y1="556.93" x2="975.69" y2="601.79"/>
		</g>
		<g>
			<line class="st19" x1="871.37" y1="349.95" x2="871.37" y2="413.38"/>
			<line class="st19" x1="871.37" y1="581.56" x2="871.37" y2="645"/>
		</g>
		<g>
			<line class="st19" x1="724.43" y1="498.06" x2="787.87" y2="498.06"/>
			<line class="st19" x1="956.05" y1="498.06" x2="1019.48" y2="498.06"/>
		</g>
	</g>
	<g>
		<g>
			<circle class="st1" cx="569.32" cy="579" r="313"/>
			<path class="st2" d="M758.07,807.66c-3.36-12.21-1.99-24.82-3.39-37.24c-0.42-3.72-1.55-8.25-3.89-11.94
				c-1.44-2.27-2.22-3.12-4.29-5.22c-0.61-0.62-1.25-1.23-1.9-1.82c0,0-2.01-1.57-1.97-1.6c-1.82-1.25-3.73-2.3-5.69-3.31
				c-0.28-0.15-0.48-0.25-0.64-0.34c-0.18-0.05-0.41-0.11-0.75-0.21c-1.13-0.34-2.23-0.74-3.36-1.06c-1.9-0.52-3.83-0.9-5.77-1.25
				c-0.26-0.05-0.47-0.09-0.64-0.12c-0.2-0.01-0.45-0.02-0.79-0.04c-1.01-0.06-2.01-0.16-3.01-0.22
				c-9.42-0.53-18.85,0.42-28.23,1.17c-19.96,1.59-40.86,1.81-58.32-9.48c-5.61-3.63-8.03-11.07-4.47-17.04
				c1.58-2.64,3.09-5.33,4.46-8.09c0.66-1.34,1.3-2.69,1.9-4.05c0.12-0.3,0.33-0.8,0.39-0.94c1.82-4.67,3.3-9.48,4.32-14.39
				c0.21-1.04,0.4-2.08,0.57-3.12c-0.05,0.26,0.25-1.78,0.28-2.12c0.2-2.07,0.32-4.15,0.34-6.23c0.03-2.35-0.05-4.71-0.24-7.06
				c-0.05-0.56-0.11-1.12-0.17-1.68c-0.06-0.43-0.2-1.5-0.27-1.82c-0.83-4.05-1.78-8.01-3.2-11.9c-0.23-0.63-1.88-4.43-0.46-1.32
				c-0.25-0.56-0.49-1.12-0.76-1.67c-0.94-1.9-1.88-3.8-2.95-5.64c-0.9-1.55-1.85-3.07-2.86-4.55c-0.47-0.68-0.96-1.35-1.45-2.02
				c-0.28-0.36-0.68-0.89-0.86-1.09c-2.46-2.82-4.99-5.54-7.81-8.02c-0.63-0.56-1.3-1.08-1.93-1.64c-0.05-0.04-0.08-0.07-0.12-0.11
				c0,0,0,0-0.01,0c-1.25-0.85-2.46-1.76-3.74-2.58c-2.6-1.67-5.32-2.99-8.06-4.39c-0.73-0.24-1.44-0.54-2.17-0.79
				c-1.33-0.45-2.67-0.86-4.03-1.21c-1.32-0.34-2.67-0.54-3.99-0.86c-0.61-0.05-1.23-0.12-1.84-0.15c-1.44-0.08-2.88-0.1-4.32-0.03
				c-0.51,0.02-1.03,0.07-1.54,0.11c-1.09,0.37-2.42,0.44-3.52,0.74c-1,0.28-4.86,1.93-2.27,0.67c-1.08,0.52-2.15,1.03-3.19,1.64
				c-0.35,0.21-1.63,1.1-2.31,1.56c-0.65,0.58-1.83,1.61-2.12,1.9c-0.54,0.54-2.52,3-2.4,2.71c-1.61,2.35-2.99,4.78-4.27,7.35
				c-0.05,0.1-0.1,0.22-0.16,0.36c-0.18,0.48-0.29,0.77-0.34,0.9c-0.18,0.49-0.36,0.97-0.53,1.47c-0.66,1.93-1.23,3.9-1.72,5.88
				c-1.13,4.59-1.45,6.63-0.97,10.29c0.34,2.6,2.26,8.8,3.5,12.69c3.58,11.23,5.61,22.28,3.33,34.04
				c-2.17,11.16-8.34,23.64-18.02,30.13c-6.44,4.32-13.82,4.76-21,6.97c-0.72,0.22-1.43,0.47-2.14,0.73
				c0.18-0.02-2.03,0.96-2.18,1.04c-2.04,1.1-3.98,2.4-5.88,3.71c-3.67,2.53-5.68,4.15-9.72,7.87c-3.58,3.3-6.95,6.81-10.15,10.47
				c-1.55,1.78-3.07,3.59-4.54,5.43c-1.71,2.13-1.65,2.07-3.59,4.73c-6.08,8.34-11.57,17.1-16.82,25.98
				c-12.73,21.49-24.53,43.93-38.61,64.63C480.02,882.15,523.52,892,569.32,892c74.01,0,142-25.7,195.58-68.64
				C761.97,818.48,759.62,813.27,758.07,807.66z"/>
			<path class="st2" d="M880.49,545.08c-13.64-126.52-102.65-230.43-221.23-265.94c-0.3,1.24-0.57,2.49-0.79,3.75
				c-0.07,0.38-0.11,0.57-0.14,0.64c-0.02,0.21-0.04,0.46-0.06,0.75c-0.12,1.41-0.23,2.81-0.28,4.23
				c-0.17,5.09-0.05,10.35,1.28,15.29c1.13,4.19,2.17,5.93,4.81,10.05c0.26,0.35,0.43,0.59,0.55,0.75c0.36,0.44,0.73,0.89,1.1,1.32
				c0.5,0.58,1,1.14,1.52,1.71c1.39,1.53,2.83,3.01,4.25,4.51c3.18,3.37,6.2,6.85,8.89,10.64c5.33,7.52,8.39,17.18,9.13,26.34
				c1.31,16.18-7.06,31.53-14.2,45.44c-2,3.9-4.01,7.81-5.85,11.79c-0.3,0.66-0.59,1.32-0.89,1.97c-0.09,0.2-0.17,0.37-0.24,0.51
				c-0.05,0.13-0.1,0.28-0.17,0.47c-0.62,1.64-1.26,3.28-1.8,4.95c-0.64,1.95-1.2,3.94-1.64,5.95c-0.18,0.82-0.32,1.65-0.48,2.48
				c0,0,0,0.01,0,0.01c0,0.05,0,0.09,0,0.15c-0.01,1.65-0.1,3.3-0.12,4.96c0,0.43,0.24,2.06,0.21,2.02c0.07,0.37,0.15,0.73,0.24,1.1
				c0.28,1.18,0.67,2.3,1.02,3.46c0.03,0.1,0.05,0.17,0.07,0.25c0.03,0.06,0.07,0.13,0.12,0.23c0.95,1.88,1.98,3.69,3.19,5.41
				c0.07,0.1,0.36,0.47,0.56,0.72c0.76,0.91,1.56,1.79,2.38,2.64c1.67,1.73,3.45,3.35,5.3,4.88c8.23,6.82,17.15,11.04,27.1,11.31
				c22.25,0.61,44.18-10.17,67.15-10.71c16.31-0.39,31.68,4.85,43.9,15.69c9.5,8.43,16.15,19.82,21.78,31.06
				c5.15,10.3,9.54,21.16,16.1,30.68c0.36,0.52,0.74,1.02,1.1,1.54c0.79,0.85,1.51,1.77,2.32,2.61c0.79,0.83,1.65,1.58,2.48,2.37
				c0.12,0.12,0.22,0.21,0.31,0.3c0.11,0.06,0.22,0.13,0.37,0.22c1.11,0.68,2.3,1.28,3.4,1.97c0.41,0.14,0.81,0.29,1.22,0.42
				c1.24,0.38,2.58,0.49,3.8,0.89c-3.41-1.12-0.4-0.07,1.19-0.03c1.65,0.04,3.27-0.13,4.91-0.21c-3.69,0.19,1.13-0.23,2.04-0.43
				C877.75,545.86,879.12,545.48,880.49,545.08z"/>
			<path class="st2" d="M310.13,711.72c22.08,0.67,41.34-2.15,62.55-7.93c20.39-5.55,38.23-11.62,55.55-23.73
				c2.44-1.7,5.5-4.19,8.85-7.72c1.02-1.07,1.98-2.19,2.92-3.33c-0.35,0.35,1.89-2.75,2.26-3.36c1.1-1.78,1.96-3.67,2.97-5.5
				c0.06-0.11,0.11-0.19,0.15-0.27c0.03-0.08,0.05-0.15,0.08-0.25c0.2-0.6,0.45-1.18,0.65-1.78c1.16-3.33,1.92-6.73,2.62-10.19
				c0.1-0.57,0.19-1.15,0.28-1.72c0.09-0.94,0.2-1.87,0.28-2.81c0.15-1.7,0.25-3.4,0.32-5.1c0.16-3.92,0.14-7.84,0.02-11.76
				c-0.26-9.08-1.01-18.13-1.62-27.19c-0.69-10.16-1.17-20.34-1.76-30.51c-0.47-8.23-1.02-16.55-0.37-24.79
				c1.24-15.75,7.34-29.9,21.97-37.52c16.56-8.63,35.52-9.46,53.79-9.18c2.07,0.03,4.15,0.06,6.22-0.02
				c0.77-0.03,2.92-0.39,3.07-0.36c0.65-0.16,1.31-0.32,1.96-0.48c0.1-0.08,0.2-0.17,0.29-0.24c-0.7,0.31,0.77-0.46,1.58-1.05
				c0.02-0.01,0.03-0.02,0.05-0.04c0.66-1.04,1.27-2.1,1.83-3.2c0.13-0.37,0.75-1.81,0.83-2.04c0.26-0.78,0.5-1.56,0.73-2.34
				c0.76-2.59,1.43-5.27,1.87-7.94c-0.12,0.55,0.25-3.3,0.26-3.85c0.02-0.96,0-1.92-0.04-2.87c-0.12-3.16-0.31-4.18-0.91-6.93
				c-1.06-4.9-2.81-10.24-4.72-14.3c-2.15-4.57-5.77-10.74-8.01-13.66c-1.34-1.74-2.82-3.4-4.35-4.96c-0.78-0.79-1.59-1.53-2.4-2.29
				c-0.14-0.05-0.3-0.15-0.48-0.28c-1.31-0.68-4.01-2.33-4.75-2.79c-0.39-0.15-0.77-0.3-1.16-0.44c-1.24-0.45-2.49-0.86-3.75-1.25
				c-5.93-1.83-12.01-3.14-18.09-4.32c-13.47-2.61-27.08-4.36-40.57-6.85c-9.69-1.79-22.27-3.58-29.43-11.08
				c-5.14-5.38-6.14-13.27-2.31-19.72c3.03-5.09,8.43-8.59,13.55-11.28c7.67-4.03,15.83-7.53,24.43-8.79
				c8.12-1.19,16.21-0.97,24.38-1.2c0.2-0.01,0.37-0.01,0.52-0.01c0.02-0.01,0.04-0.01,0.06-0.02c0.45-0.15,1.04-0.32,1.57-0.43
				c0.04-0.03,0.09-0.06,0.14-0.09c0.16-0.12,0.31-0.21,0.43-0.28c0.03-0.05,0.06-0.1,0.09-0.16c0.05-0.16,0.09-0.3,0.13-0.42
				c0.21-0.69,0.43-1.38,0.6-2.09c0.14-0.61,0.26-1.23,0.36-1.85c0.02-0.22,0.05-0.51,0.09-0.88c0.05-0.96,0.13-1.91,0.17-2.86
				c0.06-1.48,0.09-2.98,0.04-4.46c-0.01-0.14-0.32-2.84-0.21-2.5c-0.31-1.63-0.74-3.23-1.28-4.8c-0.11-0.32-1.33-2.99-0.68-1.7
				c-0.39-0.8-0.79-1.59-1.21-2.37c-3.96-7.22-9.52-13.43-13.24-20.79c-5.35-10.59-6.51-21.16-4.79-32.8
				C343.22,327.09,256.32,442.89,256.32,579c0,46.27,10.05,90.19,28.07,129.71C292.91,710.51,301.62,711.46,310.13,711.72z"/>
		</g>
		<circle class="st3" cx="444.32" cy="498" r="45"/>
		<circle class="st3" cx="703.32" cy="498" r="45"/>
		<path class="st4" d="M637.32,579c0,22.64-26.86,41-60,41s-60-18.36-60-41"/>
	</g>
	<g>
		<circle class="st8" cx="617.66" cy="307.89" r="78.33"/>
		<circle class="st9" cx="843.19" cy="256.82" r="124.82"/>
		<circle class="st10" cx="723.54" cy="285.8" r="105.59"/>
		<circle class="st11" cx="829.13" cy="357.53" r="42.47"/>
		<circle class="st10" cx="954.24" cy="325.97" r="69.44"/>
	</g>
</g>
</svg>
