<?xml version="1.0" encoding="utf-8"?>
<!-- Generator: Adobe Illustrator 24.0.1, SVG Export Plug-In . SVG Version: 6.00 Build 0)  -->
<svg version="1.1" id="Layer_1" xmlns="http://www.w3.org/2000/svg" xmlns:xlink="http://www.w3.org/1999/xlink" x="0px" y="0px"
	 viewBox="0 0 1280 1024" style="enable-background:new 0 0 1280 1024;" xml:space="preserve">
<style type="text/css">
	.st0{fill:#FCF07E;stroke:#FCF07E;stroke-width:20;stroke-linecap:round;stroke-miterlimit:10;}
	.st1{fill:#A4DCFF;}
	.st2{fill:#84F784;}
	.st3{fill:#666666;}
	.st4{fill:none;stroke:#666666;stroke-width:9;stroke-linecap:round;stroke-miterlimit:10;}
	.st5{fill:#F4F4F4;}
	.st6{fill:#D3D3D3;}
	.st7{fill:#BEBEBF;}
	.st8{fill:#999999;}
	.st9{fill:#CCCCCC;}
	.st10{fill:#B3B3B3;}
	.st11{fill:#E6E6E6;}
	.st12{fill:none;stroke:#29ABE2;stroke-width:17;stroke-linecap:round;stroke-miterlimit:10;stroke-dasharray:25,35;}
	.st13{fill:none;stroke:#F2F2F2;stroke-width:17;stroke-linecap:round;stroke-miterlimit:10;stroke-dasharray:25,35;}
	.st14{fill:none;stroke:#000000;stroke-width:6;stroke-miterlimit:10;}
	.st15{fill:#FFFFFF;stroke:#FFFFFF;stroke-width:10;stroke-linecap:round;stroke-miterlimit:10;}
	.st16{fill:#FFFFFF;stroke:#E6E6E6;stroke-width:10;stroke-linecap:round;stroke-miterlimit:10;}
	.st17{fill:none;stroke:#F2F2F2;stroke-width:17;stroke-linecap:round;stroke-miterlimit:10;}
	.st18{fill:none;stroke:#CCCCCC;stroke-width:17;stroke-linecap:round;stroke-miterlimit:10;}
	.st19{fill:#FCF07E;stroke:#FCF07E;stroke-width:14;stroke-linecap:round;stroke-miterlimit:10;}
	.st20{fill:none;stroke:#F2F2F2;stroke-width:17;stroke-linecap:round;stroke-miterlimit:10;stroke-dasharray:2,35;}
	.st21{fill:#F7C161;stroke:#999999;stroke-width:8;stroke-miterlimit:10;}
	.st22{fill:#666666;stroke:#999999;stroke-width:8;stroke-linecap:round;stroke-miterlimit:10;}
	.st23{fill:none;stroke:#666666;stroke-width:6;stroke-linecap:round;stroke-miterlimit:10;}
	.st24{opacity:0.65;}
	.st25{fill:#808080;stroke:#4D4D4D;stroke-width:3;stroke-linecap:round;stroke-miterlimit:10;}
	.st26{fill:#999999;stroke:#4D4D4D;stroke-width:3;stroke-linecap:round;stroke-miterlimit:10;}
	.st27{fill:#B3B3B3;stroke:#4D4D4D;stroke-width:3;stroke-linecap:round;stroke-miterlimit:10;}
	.st28{fill:#CCCCCC;stroke:#4D4D4D;stroke-width:3;stroke-linecap:round;stroke-miterlimit:10;}
	.st29{fill:#E6E6E6;stroke:#4D4D4D;stroke-width:3;stroke-linecap:round;stroke-miterlimit:10;}
	.st30{fill:#F2F2F2;stroke:#4D4D4D;stroke-width:3;stroke-linecap:round;stroke-miterlimit:10;}
</style>
<g>
	<g>
		<circle class="st0" cx="749.61" cy="336.89" r="136"/>
		<g>
			<line class="st0" x1="970.36" y1="116.14" x2="875.44" y2="211.07"/>
			<line class="st0" x1="623.78" y1="462.72" x2="528.85" y2="557.65"/>
		</g>
		<g>
			<line class="st0" x1="528.85" y1="116.14" x2="623.78" y2="211.07"/>
			<line class="st0" x1="875.44" y1="462.72" x2="970.36" y2="557.65"/>
		</g>
		<g>
			<line class="st0" x1="749.61" y1="24.7" x2="749.61" y2="158.95"/>
			<line class="st0" x1="749.61" y1="514.84" x2="749.61" y2="649.09"/>
		</g>
		<g>
			<line class="st0" x1="438.65" y1="338.13" x2="572.9" y2="338.13"/>
			<line class="st0" x1="928.79" y1="338.13" x2="1063.04" y2="338.13"/>
		</g>
	</g>
	<g>
		<g>
			<circle class="st1" cx="568.29" cy="647.97" r="351.33"/>
			<path class="st2" d="M780.16,904.63c-3.77-13.71-2.24-27.86-3.8-41.8c-0.47-4.17-1.74-9.26-4.36-13.4
				c-1.62-2.55-2.5-3.51-4.81-5.86c-0.69-0.7-1.4-1.38-2.13-2.04c0,0-2.25-1.76-2.21-1.79c-2.04-1.4-4.19-2.58-6.39-3.71
				c-0.32-0.16-0.54-0.28-0.72-0.39c-0.21-0.05-0.46-0.12-0.84-0.24c-1.26-0.38-2.5-0.83-3.78-1.19c-2.13-0.59-4.3-1.01-6.48-1.41
				c-0.29-0.05-0.53-0.1-0.72-0.14c-0.22-0.01-0.51-0.02-0.89-0.04c-1.13-0.06-2.25-0.18-3.38-0.25
				c-10.57-0.59-21.16,0.47-31.69,1.31c-22.41,1.79-45.86,2.04-65.47-10.65c-6.3-4.08-9.02-12.43-5.01-19.13
				c1.77-2.97,3.46-5.98,5-9.08c0.75-1.5,1.46-3.02,2.13-4.55c0.14-0.33,0.38-0.9,0.44-1.05c2.05-5.25,3.7-10.64,4.85-16.16
				c0.24-1.16,0.45-2.33,0.64-3.5c-0.06,0.29,0.28-2,0.32-2.38c0.22-2.33,0.35-4.66,0.39-7c0.04-2.64-0.05-5.29-0.27-7.92
				c-0.05-0.63-0.13-1.26-0.19-1.89c-0.07-0.48-0.23-1.69-0.3-2.04c-0.93-4.55-2-8.99-3.59-13.36c-0.26-0.71-2.11-4.98-0.52-1.49
				c-0.28-0.62-0.55-1.26-0.85-1.88c-1.06-2.14-2.11-4.26-3.31-6.33c-1.01-1.74-2.08-3.44-3.21-5.1c-0.52-0.77-1.08-1.52-1.63-2.27
				c-0.31-0.41-0.77-1-0.96-1.23c-2.77-3.17-5.6-6.22-8.76-9c-0.71-0.63-1.46-1.21-2.17-1.84c-0.05-0.05-0.08-0.08-0.13-0.12
				c0,0,0,0-0.01,0c-1.41-0.96-2.76-1.98-4.2-2.89c-2.92-1.87-5.98-3.35-9.05-4.93c-0.82-0.27-1.62-0.61-2.43-0.89
				c-1.49-0.51-3-0.96-4.52-1.35c-1.48-0.38-3-0.6-4.48-0.96c-0.69-0.05-1.38-0.13-2.06-0.17c-1.61-0.09-3.23-0.11-4.85-0.04
				c-0.58,0.03-1.16,0.08-1.73,0.13c-1.22,0.42-2.71,0.49-3.95,0.83c-1.12,0.31-5.45,2.17-2.55,0.76c-1.21,0.58-2.42,1.16-3.58,1.84
				c-0.39,0.23-1.83,1.23-2.6,1.75c-0.73,0.65-2.06,1.81-2.38,2.13c-0.61,0.61-2.83,3.36-2.69,3.04c-1.8,2.64-3.36,5.37-4.8,8.25
				c-0.05,0.11-0.12,0.25-0.18,0.4c-0.2,0.54-0.32,0.86-0.38,1.01c-0.21,0.55-0.41,1.09-0.6,1.65c-0.75,2.17-1.38,4.37-1.93,6.6
				c-1.27,5.16-1.63,7.44-1.09,11.55c0.39,2.92,2.53,9.88,3.93,14.24c4.02,12.61,6.3,25.01,3.74,38.21
				c-2.43,12.53-9.36,26.53-20.23,33.82c-7.23,4.85-15.51,5.34-23.57,7.82c-0.81,0.25-1.61,0.52-2.4,0.81
				c0.2-0.03-2.27,1.07-2.45,1.17c-2.29,1.23-4.46,2.69-6.6,4.16c-4.12,2.84-6.37,4.65-10.91,8.84c-4.01,3.7-7.8,7.65-11.39,11.75
				c-1.74,1.99-3.44,4.03-5.1,6.09c-1.92,2.39-1.85,2.32-4.03,5.31c-6.82,9.36-12.98,19.19-18.88,29.16
				c-14.29,24.12-27.53,49.31-43.34,72.54c44.01,19.85,92.84,30.9,144.25,30.9c83.07,0,159.39-28.85,219.53-77.05
				C784.53,916.78,781.89,910.92,780.16,904.63z"/>
			<path class="st2" d="M917.57,609.9c-15.31-142.01-115.22-258.65-248.33-298.51c-0.34,1.39-0.64,2.8-0.89,4.21
				c-0.08,0.43-0.12,0.64-0.15,0.71c-0.02,0.24-0.04,0.51-0.07,0.85c-0.14,1.58-0.26,3.16-0.31,4.75
				c-0.19,5.71-0.05,11.62,1.44,17.16c1.27,4.71,2.44,6.66,5.39,11.28c0.29,0.39,0.49,0.67,0.62,0.85c0.41,0.5,0.82,1,1.24,1.48
				c0.56,0.65,1.13,1.28,1.7,1.92c1.56,1.72,3.18,3.38,4.77,5.06c3.57,3.78,6.96,7.69,9.97,11.94c5.98,8.44,9.42,19.28,10.25,29.56
				c1.47,18.16-7.92,35.39-15.94,51c-2.25,4.38-4.5,8.77-6.56,13.24c-0.34,0.74-0.66,1.48-1,2.22c-0.11,0.23-0.19,0.42-0.27,0.57
				c-0.05,0.15-0.12,0.32-0.2,0.53c-0.7,1.85-1.41,3.68-2.03,5.56c-0.72,2.19-1.35,4.42-1.84,6.67c-0.2,0.92-0.36,1.85-0.54,2.78
				c0,0,0,0.01,0,0.01c0,0.06,0,0.1,0,0.17c-0.01,1.85-0.12,3.71-0.13,5.56c0,0.48,0.27,2.31,0.23,2.27
				c0.08,0.41,0.17,0.82,0.27,1.23c0.31,1.32,0.75,2.59,1.15,3.88c0.03,0.11,0.06,0.19,0.08,0.28c0.04,0.07,0.08,0.15,0.13,0.25
				c1.07,2.11,2.22,4.14,3.58,6.08c0.08,0.11,0.4,0.52,0.63,0.81c0.85,1.02,1.75,2.01,2.67,2.97c1.87,1.94,3.87,3.76,5.95,5.48
				c9.24,7.65,19.25,12.39,30.42,12.7c24.97,0.69,49.59-11.41,75.37-12.02c18.3-0.43,35.56,5.44,49.27,17.61
				c10.67,9.47,18.13,22.24,24.44,34.87c5.78,11.56,10.71,23.75,18.08,34.43c0.4,0.58,0.83,1.15,1.23,1.73
				c0.89,0.95,1.69,1.99,2.6,2.93c0.89,0.93,1.85,1.77,2.78,2.65c0.14,0.13,0.25,0.24,0.35,0.34c0.12,0.07,0.25,0.14,0.41,0.24
				c1.25,0.76,2.58,1.44,3.82,2.21c0.45,0.15,0.91,0.33,1.36,0.47c1.39,0.43,2.9,0.55,4.26,1c-3.83-1.25-0.45-0.08,1.34-0.04
				c1.85,0.04,3.67-0.14,5.51-0.24c-4.14,0.21,1.27-0.26,2.29-0.49C914.49,610.77,916.03,610.35,917.57,609.9z"/>
			<path class="st2" d="M277.35,796.95c24.79,0.75,46.4-2.42,70.21-8.9c22.89-6.23,42.92-13.05,62.35-26.64
				c2.73-1.91,6.17-4.7,9.93-8.67c1.14-1.2,2.23-2.46,3.27-3.74c-0.39,0.39,2.12-3.09,2.54-3.78c1.24-2,2.21-4.12,3.34-6.18
				c0.07-0.12,0.12-0.21,0.17-0.31c0.03-0.09,0.05-0.17,0.09-0.28c0.22-0.67,0.5-1.33,0.73-2c1.31-3.74,2.15-7.56,2.95-11.43
				c0.11-0.64,0.22-1.29,0.32-1.93c0.1-1.05,0.23-2.1,0.32-3.16c0.16-1.9,0.28-3.81,0.36-5.72c0.18-4.4,0.15-8.8,0.03-13.2
				c-0.3-10.19-1.13-20.35-1.82-30.52c-0.77-11.41-1.32-22.83-1.97-34.24c-0.53-9.24-1.15-18.58-0.42-27.82
				c1.39-17.68,8.24-33.56,24.66-42.11c18.59-9.68,39.87-10.62,60.38-10.3c2.33,0.04,4.66,0.07,6.99-0.03
				c0.86-0.04,3.28-0.44,3.45-0.41c0.73-0.18,1.47-0.36,2.2-0.54c0.11-0.09,0.22-0.19,0.32-0.26c-0.79,0.34,0.86-0.52,1.77-1.18
				c0.02-0.02,0.04-0.02,0.06-0.04c0.74-1.17,1.42-2.36,2.05-3.59c0.15-0.41,0.84-2.03,0.93-2.29c0.29-0.87,0.57-1.75,0.82-2.63
				c0.85-2.91,1.61-5.92,2.1-8.91c-0.14,0.61,0.29-3.7,0.3-4.32c0.02-1.07,0-2.15-0.04-3.22c-0.14-3.55-0.35-4.7-1.02-7.78
				c-1.19-5.5-3.15-11.49-5.3-16.06c-2.41-5.13-6.48-12.06-8.99-15.33c-1.5-1.95-3.16-3.81-4.88-5.57c-0.87-0.89-1.79-1.72-2.7-2.57
				c-0.16-0.06-0.34-0.17-0.53-0.31c-1.47-0.76-4.5-2.61-5.33-3.13c-0.43-0.17-0.87-0.34-1.3-0.5c-1.39-0.5-2.8-0.97-4.21-1.4
				c-6.65-2.06-13.48-3.53-20.31-4.85c-15.12-2.92-30.4-4.9-45.54-7.69c-10.88-2.01-25-4.02-33.04-12.44
				c-5.76-6.04-6.9-14.9-2.6-22.13c3.4-5.72,9.46-9.64,15.21-12.67c8.6-4.53,17.77-8.45,27.42-9.87c9.11-1.33,18.2-1.08,27.37-1.35
				c0.23-0.01,0.42-0.01,0.59-0.01c0.03-0.01,0.04-0.02,0.07-0.02c0.5-0.16,1.17-0.36,1.77-0.49c0.05-0.03,0.1-0.07,0.16-0.1
				c0.18-0.14,0.35-0.24,0.49-0.32c0.04-0.06,0.07-0.11,0.11-0.17c0.05-0.18,0.1-0.33,0.15-0.47c0.24-0.78,0.48-1.55,0.67-2.35
				c0.16-0.69,0.29-1.38,0.41-2.07c0.02-0.24,0.06-0.57,0.1-0.99c0.06-1.07,0.15-2.14,0.19-3.22c0.07-1.67,0.1-3.34,0.04-5.01
				c-0.01-0.16-0.36-3.19-0.24-2.8c-0.35-1.83-0.83-3.63-1.43-5.39c-0.12-0.36-1.49-3.36-0.77-1.9c-0.44-0.89-0.88-1.78-1.36-2.66
				c-4.44-8.1-10.69-15.08-14.86-23.33c-6.01-11.88-7.31-23.76-5.37-36.81c-136.19,48.37-233.72,178.36-233.72,331.14
				c0,51.94,11.28,101.24,31.51,145.6C258.03,795.58,267.8,796.66,277.35,796.95z"/>
		</g>
		<circle class="st3" cx="427.98" cy="557.05" r="50.51"/>
		<circle class="st3" cx="718.7" cy="557.05" r="50.51"/>
		<path class="st4" d="M644.62,647.97c0,25.42-30.15,46.02-67.35,46.02c-37.2,0-67.35-20.6-67.35-46.02"/>
	</g>
</g>
</svg>
