<?xml version="1.0" encoding="utf-8"?>
<!-- Generator: Adobe Illustrator 24.0.1, SVG Export Plug-In . SVG Version: 6.00 Build 0)  -->
<svg version="1.1" id="Layer_1" xmlns="http://www.w3.org/2000/svg" xmlns:xlink="http://www.w3.org/1999/xlink" x="0px" y="0px"
	 viewBox="0 0 1280 1024" style="enable-background:new 0 0 1280 1024;" xml:space="preserve">
<style type="text/css">
	.st0{fill:#FCF07E;stroke:#FCF07E;stroke-width:20;stroke-linecap:round;stroke-miterlimit:10;}
	.st1{fill:#A4DCFF;}
	.st2{fill:#84F784;}
	.st3{fill:#666666;}
	.st4{fill:none;stroke:#666666;stroke-width:9;stroke-linecap:round;stroke-miterlimit:10;}
	.st5{fill:#F4F4F4;}
	.st6{fill:#D3D3D3;}
	.st7{fill:#BEBEBF;}
	.st8{fill:#999999;}
	.st9{fill:#CCCCCC;}
	.st10{fill:#B3B3B3;}
	.st11{fill:#E6E6E6;}
	.st12{fill:none;stroke:#29ABE2;stroke-width:17;stroke-linecap:round;stroke-miterlimit:10;stroke-dasharray:25,35;}
	.st13{fill:none;stroke:#F2F2F2;stroke-width:17;stroke-linecap:round;stroke-miterlimit:10;stroke-dasharray:25,35;}
	.st14{fill:none;stroke:#000000;stroke-width:6;stroke-miterlimit:10;}
	.st15{fill:#FFFFFF;stroke:#FFFFFF;stroke-width:10;stroke-linecap:round;stroke-miterlimit:10;}
	.st16{fill:#FFFFFF;stroke:#E6E6E6;stroke-width:10;stroke-linecap:round;stroke-miterlimit:10;}
</style>
<g>
	<g>
		<g>
			<circle class="st1" cx="590.71" cy="528.08" r="313"/>
			<path class="st2" d="M779.46,756.74c-3.36-12.21-1.99-24.82-3.39-37.24c-0.42-3.72-1.55-8.25-3.89-11.94
				c-1.44-2.27-2.22-3.12-4.29-5.22c-0.61-0.62-1.25-1.23-1.9-1.82c0,0-2.01-1.57-1.97-1.6c-1.82-1.25-3.73-2.3-5.69-3.31
				c-0.28-0.15-0.48-0.25-0.64-0.34c-0.18-0.05-0.41-0.11-0.75-0.21c-1.13-0.34-2.23-0.74-3.36-1.06c-1.9-0.52-3.83-0.9-5.77-1.25
				c-0.26-0.05-0.47-0.09-0.64-0.12c-0.2-0.01-0.45-0.02-0.79-0.04c-1.01-0.06-2.01-0.16-3.01-0.22
				c-9.42-0.53-18.85,0.42-28.23,1.17c-19.96,1.59-40.86,1.81-58.32-9.48c-5.61-3.63-8.03-11.07-4.47-17.04
				c1.58-2.64,3.09-5.33,4.46-8.09c0.66-1.34,1.3-2.69,1.9-4.05c0.12-0.3,0.33-0.8,0.39-0.94c1.82-4.67,3.3-9.48,4.32-14.39
				c0.21-1.04,0.4-2.08,0.57-3.12c-0.05,0.26,0.25-1.78,0.28-2.12c0.2-2.07,0.32-4.15,0.34-6.23c0.03-2.35-0.05-4.71-0.24-7.06
				c-0.05-0.56-0.11-1.12-0.17-1.68c-0.06-0.43-0.2-1.5-0.27-1.82c-0.83-4.05-1.78-8.01-3.2-11.9c-0.23-0.63-1.88-4.43-0.46-1.32
				c-0.25-0.56-0.49-1.12-0.76-1.67c-0.94-1.9-1.88-3.8-2.95-5.64c-0.9-1.55-1.85-3.07-2.86-4.55c-0.47-0.68-0.96-1.35-1.45-2.02
				c-0.28-0.36-0.68-0.89-0.86-1.09c-2.46-2.82-4.99-5.54-7.81-8.02c-0.63-0.56-1.3-1.08-1.93-1.64c-0.05-0.04-0.08-0.07-0.12-0.11
				c0,0,0,0-0.01,0c-1.25-0.85-2.46-1.76-3.74-2.58c-2.6-1.67-5.32-2.99-8.06-4.39c-0.73-0.24-1.44-0.54-2.17-0.79
				c-1.33-0.45-2.67-0.86-4.03-1.21c-1.32-0.34-2.67-0.54-3.99-0.86c-0.61-0.05-1.23-0.12-1.84-0.15c-1.44-0.08-2.88-0.1-4.32-0.03
				c-0.51,0.02-1.03,0.07-1.54,0.11c-1.09,0.37-2.42,0.44-3.52,0.74c-1,0.28-4.86,1.93-2.27,0.67c-1.08,0.52-2.15,1.03-3.19,1.64
				c-0.35,0.21-1.63,1.1-2.31,1.56c-0.65,0.58-1.83,1.61-2.12,1.9c-0.54,0.54-2.52,3-2.4,2.71c-1.61,2.35-2.99,4.78-4.27,7.35
				c-0.05,0.1-0.1,0.22-0.16,0.36c-0.18,0.48-0.29,0.77-0.34,0.9c-0.18,0.49-0.36,0.97-0.53,1.47c-0.66,1.93-1.23,3.9-1.72,5.88
				c-1.13,4.59-1.45,6.63-0.97,10.29c0.34,2.6,2.26,8.8,3.5,12.69c3.58,11.23,5.61,22.28,3.33,34.04
				c-2.17,11.16-8.34,23.64-18.02,30.13c-6.44,4.32-13.82,4.76-21,6.97c-0.72,0.22-1.43,0.47-2.14,0.73
				c0.18-0.02-2.03,0.96-2.18,1.04c-2.04,1.1-3.98,2.4-5.88,3.71c-3.67,2.53-5.68,4.15-9.72,7.87c-3.58,3.3-6.95,6.81-10.15,10.47
				c-1.55,1.78-3.07,3.59-4.54,5.43c-1.71,2.13-1.65,2.07-3.59,4.73c-6.08,8.34-11.57,17.1-16.82,25.98
				c-12.73,21.49-24.53,43.93-38.61,64.63c39.21,17.68,82.71,27.53,128.51,27.53c74.01,0,142-25.7,195.58-68.64
				C783.35,767.56,781,762.35,779.46,756.74z"/>
			<path class="st2" d="M901.87,494.16c-13.64-126.52-102.65-230.43-221.23-265.94c-0.3,1.24-0.57,2.49-0.79,3.75
				c-0.07,0.38-0.11,0.57-0.14,0.64c-0.02,0.21-0.04,0.46-0.06,0.75c-0.12,1.41-0.23,2.81-0.28,4.23
				c-0.17,5.09-0.05,10.35,1.28,15.29c1.13,4.19,2.17,5.93,4.81,10.05c0.26,0.35,0.43,0.59,0.55,0.75c0.36,0.44,0.73,0.89,1.1,1.32
				c0.5,0.58,1,1.14,1.52,1.71c1.39,1.53,2.83,3.01,4.25,4.51c3.18,3.37,6.2,6.85,8.89,10.64c5.33,7.52,8.39,17.18,9.13,26.34
				c1.31,16.18-7.06,31.53-14.2,45.44c-2,3.9-4.01,7.81-5.85,11.79c-0.3,0.66-0.59,1.32-0.89,1.97c-0.09,0.2-0.17,0.37-0.24,0.51
				c-0.05,0.13-0.1,0.28-0.17,0.47c-0.62,1.64-1.26,3.28-1.8,4.95c-0.64,1.95-1.2,3.94-1.64,5.95c-0.18,0.82-0.32,1.65-0.48,2.48
				c0,0,0,0.01,0,0.01c0,0.05,0,0.09,0,0.15c-0.01,1.65-0.1,3.3-0.12,4.96c0,0.43,0.24,2.06,0.21,2.02c0.07,0.37,0.15,0.73,0.24,1.1
				c0.28,1.18,0.67,2.3,1.02,3.46c0.03,0.1,0.05,0.17,0.07,0.25c0.03,0.06,0.07,0.13,0.12,0.23c0.95,1.88,1.98,3.69,3.19,5.41
				c0.07,0.1,0.36,0.47,0.56,0.72c0.76,0.91,1.56,1.79,2.38,2.64c1.67,1.73,3.45,3.35,5.3,4.88c8.23,6.82,17.15,11.04,27.1,11.31
				c22.25,0.61,44.18-10.17,67.15-10.71c16.31-0.39,31.68,4.85,43.9,15.69c9.5,8.43,16.15,19.82,21.78,31.06
				c5.15,10.3,9.54,21.16,16.1,30.68c0.36,0.52,0.74,1.02,1.1,1.54c0.79,0.85,1.51,1.77,2.32,2.61c0.79,0.83,1.65,1.58,2.48,2.37
				c0.12,0.12,0.22,0.21,0.31,0.3c0.11,0.06,0.22,0.13,0.37,0.22c1.11,0.68,2.3,1.28,3.4,1.97c0.41,0.14,0.81,0.29,1.22,0.42
				c1.24,0.38,2.58,0.49,3.8,0.89c-3.41-1.12-0.4-0.07,1.19-0.03c1.65,0.04,3.27-0.13,4.91-0.21c-3.69,0.19,1.13-0.23,2.04-0.43
				C899.13,494.94,900.51,494.57,901.87,494.16z"/>
			<path class="st2" d="M331.51,660.81c22.08,0.67,41.34-2.15,62.55-7.93c20.39-5.55,38.23-11.62,55.55-23.73
				c2.44-1.7,5.5-4.19,8.85-7.72c1.02-1.07,1.98-2.19,2.92-3.33c-0.35,0.35,1.89-2.75,2.26-3.36c1.1-1.78,1.96-3.67,2.97-5.5
				c0.06-0.11,0.11-0.19,0.15-0.27c0.03-0.08,0.05-0.15,0.08-0.25c0.2-0.6,0.45-1.18,0.65-1.78c1.16-3.33,1.92-6.73,2.62-10.19
				c0.1-0.57,0.19-1.15,0.28-1.72c0.09-0.94,0.2-1.87,0.28-2.81c0.15-1.7,0.25-3.4,0.32-5.1c0.16-3.92,0.14-7.84,0.02-11.76
				c-0.26-9.08-1.01-18.13-1.62-27.19c-0.69-10.16-1.17-20.34-1.76-30.51c-0.47-8.23-1.02-16.55-0.37-24.79
				c1.24-15.75,7.34-29.9,21.97-37.52c16.56-8.63,35.52-9.46,53.79-9.18c2.07,0.03,4.15,0.06,6.22-0.02
				c0.77-0.03,2.92-0.39,3.07-0.36c0.65-0.16,1.31-0.32,1.96-0.48c0.1-0.08,0.2-0.17,0.29-0.24c-0.7,0.31,0.77-0.46,1.58-1.05
				c0.02-0.01,0.03-0.02,0.05-0.04c0.66-1.04,1.27-2.1,1.83-3.2c0.13-0.37,0.75-1.81,0.83-2.04c0.26-0.78,0.5-1.56,0.73-2.34
				c0.76-2.59,1.43-5.27,1.87-7.94c-0.12,0.55,0.25-3.3,0.26-3.85c0.02-0.96,0-1.92-0.04-2.87c-0.12-3.16-0.31-4.18-0.91-6.93
				c-1.06-4.9-2.81-10.24-4.72-14.3c-2.15-4.57-5.77-10.74-8.01-13.66c-1.34-1.74-2.82-3.4-4.35-4.96c-0.78-0.79-1.59-1.53-2.4-2.29
				c-0.14-0.05-0.3-0.15-0.48-0.28c-1.31-0.68-4.01-2.33-4.75-2.79c-0.39-0.15-0.77-0.3-1.16-0.44c-1.24-0.45-2.49-0.86-3.75-1.25
				c-5.93-1.83-12.01-3.14-18.09-4.32c-13.47-2.61-27.08-4.36-40.57-6.85c-9.69-1.79-22.27-3.58-29.43-11.08
				c-5.14-5.38-6.14-13.27-2.31-19.72c3.03-5.09,8.43-8.59,13.55-11.28c7.67-4.03,15.83-7.53,24.43-8.79
				c8.12-1.19,16.21-0.97,24.38-1.2c0.2-0.01,0.37-0.01,0.52-0.01c0.02-0.01,0.04-0.01,0.06-0.02c0.45-0.15,1.04-0.32,1.57-0.43
				c0.04-0.03,0.09-0.06,0.14-0.09c0.16-0.12,0.31-0.21,0.43-0.28c0.03-0.05,0.06-0.1,0.09-0.16c0.05-0.16,0.09-0.3,0.13-0.42
				c0.21-0.69,0.43-1.38,0.6-2.09c0.14-0.61,0.26-1.23,0.36-1.85c0.02-0.22,0.05-0.51,0.09-0.88c0.05-0.96,0.13-1.91,0.17-2.86
				c0.06-1.48,0.09-2.98,0.04-4.46c-0.01-0.14-0.32-2.84-0.21-2.5c-0.31-1.63-0.74-3.23-1.28-4.8c-0.11-0.32-1.33-2.99-0.68-1.7
				c-0.39-0.8-0.79-1.59-1.21-2.37c-3.96-7.22-9.52-13.43-13.24-20.79c-5.35-10.59-6.51-21.16-4.79-32.8
				c-121.33,43.1-208.22,158.9-208.22,295.01c0,46.27,10.05,90.19,28.07,129.71C314.29,659.59,323,660.55,331.51,660.81z"/>
		</g>
		<circle class="st3" cx="465.71" cy="447.08" r="45"/>
		<circle class="st3" cx="724.71" cy="447.08" r="45"/>
		<path class="st4" d="M658.71,528.08c0,22.64-26.86,41-60,41s-60-18.36-60-41"/>
	</g>
	<g>
		<g>
			<path class="st8" d="M792.75,199.29c-2.05-7.46-6.92-14.02-14.13-17.14c-6.64-2.87-14.3-2.91-21.09-0.43
				c-7.04,2.57-13.21,7.54-16.68,14.26c-4.17,8.08-4.12,17.47-1.38,26c4.26,13.24,13.69,24.44,23.64,33.84
				c7.5,7.09,15.71,13.43,24.2,19.29c5.09,3.52,10.3,6.85,15.59,10.05c4.35,2.63,8.62,5.44,13.54,6.88
				c11.61,3.4,23.38,0.41,33.77-5.18c11.49-6.19,21.51-14.86,31.69-22.92c1.3-1.03,2.61-2.05,3.92-3.07
				c0.08-0.06,0.73-0.56,0.16-0.13c0.16-0.12,0.32-0.25,0.48-0.37c0.32-0.25,0.64-0.49,0.97-0.74c0.68-0.52,1.35-1.03,2.04-1.54
				c2.71-2.03,5.46-4,8.28-5.89c2.78-1.85,5.62-3.62,8.54-5.24c1.44-0.8,2.9-1.56,4.38-2.28c0.7-0.34,1.41-0.67,2.12-0.99
				c0.39-0.18,0.78-0.35,1.17-0.52c0.16-0.07,0.66-0.28,0.03-0.02c0.21-0.09,0.43-0.18,0.64-0.27c3-1.22,6.08-2.25,9.22-3.02
				c1.57-0.38,3.16-0.7,4.77-0.95c0.23-0.04,1.35-0.18,0.58-0.09c0.39-0.05,0.77-0.09,1.16-0.14c0.86-0.09,1.71-0.16,2.57-0.21
				c1.66-0.09,3.33-0.11,5-0.04c0.81,0.03,1.62,0.08,2.42,0.15c0.41,0.04,0.82,0.07,1.22,0.12c0.25,0.03,0.49,0.06,0.74,0.09
				c0.83,0.09-0.64-0.1,0.19,0.02c3.63,0.54,7.19,1.41,10.66,2.6c0.88,0.3,1.75,0.63,2.62,0.97c0.44,0.17,0.88,0.35,1.32,0.54
				c-0.41-0.17,0.66,0.29,0.88,0.39c1.94,0.87,3.83,1.83,5.7,2.85c3.39,1.86,6.42-3.32,3.03-5.18c-6.88-3.78-14.33-6.7-22.12-7.88
				c-6.86-1.04-13.74-0.86-20.54,0.57c-12.92,2.72-24.54,9.69-35.09,17.36c-5.57,4.05-10.94,8.35-16.32,12.64
				c-1.25,0.99-2.5,1.99-3.75,2.98c-0.62,0.49-1.24,0.98-1.87,1.47c-0.31,0.24-0.62,0.48-0.93,0.73c-0.19,0.14-0.37,0.29-0.56,0.43
				c-0.5,0.39,0.41-0.31-0.14,0.11c-2.5,1.92-5.02,3.81-7.59,5.62c-4.86,3.41-9.93,6.6-15.38,9c-0.21,0.09-1.22,0.51-0.4,0.18
				c-0.28,0.11-0.56,0.23-0.84,0.34c-0.65,0.26-1.31,0.51-1.97,0.74c-1.3,0.46-2.62,0.86-3.96,1.2c-1.29,0.33-2.59,0.56-3.9,0.79
				c-0.2,0.03-0.7,0.09,0.13-0.01c-0.16,0.02-0.32,0.04-0.48,0.06c-0.32,0.03-0.64,0.07-0.96,0.1c-0.67,0.06-1.35,0.1-2.02,0.13
				c-1.36,0.05-2.72,0.01-4.08-0.11c-0.33-0.03-0.65-0.07-0.98-0.1c-0.83-0.09,0.47,0.09-0.38-0.05c-0.66-0.11-1.32-0.22-1.98-0.36
				c-1.42-0.3-2.82-0.69-4.2-1.16c-2.23-0.76-3.88-1.85-5.98-3.08c-10.15-5.93-20.05-12.34-29.4-19.48
				c-7.09-5.41-13.96-11.43-20.06-18.03c-1.25-1.36-2.47-2.74-3.65-4.16c-0.56-0.67-1.11-1.35-1.66-2.04
				c-0.16-0.2-0.32-0.4-0.48-0.61c0.07,0.09,0.34,0.45,0,0c-0.3-0.4-0.6-0.8-0.9-1.2c-1.87-2.54-3.61-5.19-5.14-7.94
				c-0.71-1.27-1.37-2.56-1.98-3.88c-0.14-0.3-0.28-0.6-0.41-0.9c-0.09-0.21-0.5-1.21-0.16-0.36c-0.24-0.59-0.48-1.17-0.7-1.77
				c-0.84-2.27-1.52-4.62-1.95-7c-0.05-0.27-0.1-0.54-0.14-0.81c-0.02-0.15-0.16-1.07-0.08-0.48c0.08,0.58-0.03-0.23-0.04-0.39
				c-0.03-0.31-0.07-0.62-0.09-0.93c-0.09-1.06-0.13-2.12-0.11-3.17c0.02-0.99,0.1-1.97,0.2-2.95c0.08-0.83-0.08,0.47-0.01,0.03
				c0.04-0.23,0.07-0.46,0.11-0.69c0.08-0.5,0.18-0.99,0.3-1.48c0.21-0.91,0.46-1.81,0.77-2.7c0.13-0.39,0.28-0.78,0.43-1.16
				c0.22-0.58,0.15-0.29,0,0c0.11-0.2,0.19-0.43,0.29-0.65c0.74-1.59,1.66-3.06,2.68-4.48c0.47-0.65-0.39,0.47-0.02,0.02
				c0.12-0.14,0.23-0.29,0.35-0.43c0.29-0.35,0.58-0.69,0.89-1.02c0.58-0.63,1.19-1.23,1.82-1.81c0.3-0.27,0.61-0.54,0.92-0.79
				c0.16-0.13,0.32-0.25,0.47-0.38c0.25-0.21-0.66,0.48-0.03,0.03c0.69-0.5,1.38-0.98,2.1-1.42c0.72-0.44,1.46-0.84,2.21-1.22
				c0.34-0.17,0.69-0.33,1.03-0.48c0.57-0.26,0.22-0.08-0.06,0.02c0.21-0.07,0.41-0.17,0.61-0.25c1.53-0.6,3.11-1.06,4.72-1.38
				c0.37-0.07,0.73-0.14,1.1-0.2c0.6-0.1,0.38,0.07-0.1,0.01c0.21,0.03,0.48-0.06,0.7-0.08c0.81-0.09,1.63-0.14,2.45-0.15
				c0.77-0.01,1.55,0.01,2.32,0.07c0.38,0.03,0.77,0.09,1.15,0.11c0.31,0.02-0.85-0.14-0.11-0.01c0.23,0.04,0.45,0.07,0.68,0.11
				c1.55,0.28,3.03,0.75,4.51,1.3c0.65,0.24-0.7-0.33-0.08-0.03c0.17,0.08,0.35,0.16,0.52,0.24c0.38,0.18,0.76,0.37,1.13,0.57
				c0.69,0.38,1.37,0.8,2.01,1.26c0.14,0.1,0.28,0.21,0.42,0.31c0.57,0.4-0.57-0.48-0.05-0.04c0.33,0.28,0.67,0.55,0.99,0.84
				c0.62,0.57,1.21,1.17,1.77,1.8c0.13,0.15,0.26,0.31,0.4,0.47c0.1,0.12,0.51,0.66,0.15,0.18c-0.37-0.5,0.09,0.13,0.18,0.25
				c0.14,0.19,0.27,0.38,0.4,0.57c0.51,0.75,0.97,1.53,1.39,2.34c0.21,0.4,0.4,0.8,0.59,1.21c0.14,0.31,0.58,0.79,0.02,0.04
				c0.12,0.17,0.18,0.45,0.26,0.65c0.35,0.9,0.64,1.82,0.9,2.74C787.99,204.61,793.78,203.03,792.75,199.29L792.75,199.29z"/>
		</g>
	</g>
	<g>
		<g>
			<path class="st8" d="M985.67,267.63c-9.41,0-18.85,0.28-28.2,1.37c-6.37,0.74-12.77,1.77-18.87,3.81
				c-7.23,2.42-14.24,6.45-17.83,13.47c-2.53,4.95-3.08,10.42-4.64,15.68c-0.19,0.64-0.4,1.27-0.63,1.9
				c-0.1,0.28-0.22,0.56-0.32,0.84c-0.2,0.54,0.35-0.77,0.08-0.18c-0.07,0.16-0.14,0.32-0.22,0.49c-0.57,1.23-1.28,2.36-2.06,3.47
				c-0.4,0.57,0.46-0.54,0.09-0.11c-0.11,0.13-0.22,0.27-0.33,0.4c-0.25,0.3-0.52,0.59-0.79,0.88c-0.52,0.54-1.06,1.05-1.64,1.52
				c-0.15,0.12-0.32,0.24-0.46,0.37c0.16-0.16,0.5-0.36,0.02-0.03c-0.38,0.27-0.75,0.54-1.14,0.79c-0.75,0.49-1.52,0.93-2.32,1.35
				c-0.43,0.22-0.86,0.43-1.3,0.64c-0.23,0.11-0.46,0.21-0.69,0.31c-0.85,0.38,0.43-0.16-0.32,0.13c-1.04,0.41-2.08,0.79-3.15,1.13
				c-2.59,0.83-5.24,1.46-7.91,1.97c-1.58,0.3-3.16,0.55-4.75,0.78c-0.15,0.02-0.75,0.1-0.17,0.02c-0.19,0.02-0.37,0.05-0.56,0.07
				c-0.43,0.05-0.86,0.11-1.28,0.16c-0.94,0.11-1.88,0.21-2.83,0.3c-3.81,0.37-7.69,0.34-11.48,0.92
				c-4.73,0.72-9.08,3.24-11.54,7.42c-2.36,4.01-2.81,8.93-2.25,13.47c1.4,11.28,7.55,22.09,15.69,29.9
				c8.48,8.13,20.3,13.29,32.05,9.82c1.56-0.46,3.24-1.02,4.66-1.81c1.54-0.87,2.88-2.54,3.96-3.92c2.13-2.71,3.73-5.8,4.54-9.16
				c1.54-6.38,0.43-12.99-2.21-18.91c-4.11-9.21-15.33-20.54-26.25-14.65c-2.56,1.38-4.55,3.67-6.05,6.13
				c-2.02,3.31,3.17,6.32,5.18,3.03c0.19-0.31,0.38-0.62,0.59-0.92c0.09-0.13,0.79-1.01,0.28-0.41c0.41-0.49,0.83-0.97,1.3-1.41
				c0.2-0.18,0.41-0.35,0.6-0.53c0.48-0.45-0.42,0.29-0.07,0.05c0.11-0.07,0.21-0.15,0.31-0.22c0.5-0.32,1-0.58,1.52-0.85
				c-0.55,0.28-0.26,0.1,0.11-0.02c0.25-0.08,0.5-0.16,0.76-0.22c0.25-0.06,0.51-0.1,0.76-0.16c0.23-0.05,0.46,0.05-0.28,0.04
				c0.17,0,0.35-0.03,0.52-0.04c0.46-0.03,0.93-0.02,1.39,0.01c0.12,0.01,0.23,0.03,0.35,0.03c0.6,0.03-0.55-0.17-0.18-0.02
				c0.26,0.1,0.61,0.11,0.88,0.18c0.51,0.12,1,0.27,1.49,0.45c0.32,0.12,0.74,0.33,0.16,0.05c0.29,0.14,0.58,0.27,0.87,0.41
				c0.53,0.27,1.04,0.57,1.54,0.89c0.23,0.15,0.45,0.3,0.68,0.45c0.21,0.15,0.98,0.74,0.39,0.27c1.01,0.81,1.97,1.68,2.85,2.63
				c0.43,0.46,0.85,0.94,1.25,1.44c0.1,0.12,0.19,0.24,0.28,0.35c0.29,0.37-0.42-0.58,0.02,0.03c0.22,0.31,0.45,0.62,0.67,0.94
				c0.78,1.13,1.48,2.3,2.11,3.52c0.31,0.6,0.59,1.21,0.87,1.83c-0.3-0.66,0.13,0.33,0.2,0.5c0.13,0.34,0.25,0.67,0.37,1.01
				c0.47,1.36,0.85,2.75,1.11,4.17c0.07,0.35,0.12,0.71,0.18,1.06c0.07,0.44-0.06-0.53-0.01-0.09c0.02,0.2,0.04,0.4,0.06,0.6
				c0.07,0.71,0.11,1.43,0.11,2.15c0.01,0.68-0.02,1.36-0.07,2.03c-0.03,0.36-0.07,0.72-0.11,1.07c0.09-0.75-0.07,0.39-0.12,0.62
				c-0.12,0.63-0.27,1.26-0.45,1.88c-0.1,0.35-0.21,0.7-0.33,1.04c-0.07,0.19-0.14,0.38-0.21,0.57c-0.03,0.07-0.29,0.71-0.13,0.33
				c0.12-0.28-0.28,0.6-0.37,0.77c-0.15,0.3-0.31,0.6-0.47,0.89c-0.4,0.71-0.84,1.39-1.32,2.06c-0.05,0.07-0.38,0.51-0.16,0.22
				c0.26-0.34-0.28,0.34-0.26,0.32c-0.23,0.28-0.47,0.55-0.71,0.82c-0.54,0.58-1.14,1.34-1.81,1.77c0.68-0.43-0.87,0.29-0.38,0.08
				c0.36-0.16-0.12,0.05-0.21,0.08c-0.19,0.07-0.37,0.15-0.56,0.22c-0.66,0.25-1.34,0.47-2.02,0.67c-0.63,0.18-1.26,0.33-1.9,0.46
				c-0.33,0.07-0.67,0.12-1,0.18c-0.15,0.03-0.3,0.04-0.44,0.07c0.82-0.12,0.05-0.01-0.09,0c-1.32,0.11-2.63,0.17-3.95,0.09
				c-0.58-0.03-1.15-0.09-1.73-0.16c0.89,0.1-0.2-0.04-0.38-0.07c-0.36-0.06-0.71-0.13-1.06-0.21c-1.24-0.27-2.46-0.62-3.65-1.05
				c-0.31-0.11-0.61-0.23-0.92-0.35c-0.67-0.25,0.39,0.19-0.39-0.17c-0.6-0.27-1.2-0.55-1.79-0.86c-1.19-0.62-2.34-1.3-3.45-2.05
				c-0.53-0.36-1.05-0.72-1.57-1.1c-0.12-0.09-0.24-0.18-0.36-0.27c-0.38-0.28,0.56,0.45-0.02-0.02c-0.3-0.24-0.59-0.47-0.89-0.72
				c-2.1-1.75-4.04-3.69-5.81-5.76c-0.43-0.5-0.83-1.02-1.25-1.52c-0.09-0.1-0.35-0.45,0.04,0.06c-0.09-0.12-0.19-0.25-0.28-0.37
				c-0.23-0.31-0.46-0.62-0.69-0.93c-0.81-1.12-1.58-2.27-2.3-3.46c-0.71-1.16-1.38-2.35-2-3.57c-0.29-0.56-0.57-1.13-0.83-1.71
				c-0.12-0.27-0.25-0.54-0.37-0.81c-0.07-0.17-0.15-0.34-0.22-0.51c0.15,0.33,0.15,0.36,0.01,0.01c-0.93-2.31-1.72-4.68-2.24-7.12
				c-0.13-0.58-0.24-1.17-0.33-1.76c-0.04-0.26-0.08-0.51-0.12-0.77c0.15,0.94,0-0.11-0.03-0.34c-0.11-1.1-0.16-2.21-0.12-3.31
				c0.01-0.5,0.05-1,0.09-1.49c0.02-0.23,0.19-1.15,0.01-0.14c0.05-0.28,0.09-0.55,0.14-0.83c0.18-0.94,0.47-1.83,0.78-2.73
				c0.21-0.62-0.32,0.64,0.04-0.08c0.09-0.19,0.18-0.38,0.28-0.56c0.22-0.41,0.45-0.81,0.71-1.19c0.06-0.1,0.57-0.76,0.22-0.32
				c-0.35,0.44,0.16-0.18,0.26-0.29c0.31-0.35,0.64-0.68,0.99-0.98c0.11-0.09,0.75-0.6,0.3-0.26c-0.45,0.34,0.25-0.17,0.34-0.23
				c0.41-0.27,0.84-0.52,1.27-0.74c0.2-0.1,0.41-0.19,0.61-0.29c0.44-0.22-0.2,0.09-0.24,0.1c0.14-0.05,0.27-0.11,0.41-0.16
				c0.55-0.19,1.09-0.36,1.66-0.5c0.5-0.12,1.01-0.2,1.52-0.3c0.67-0.13-0.54,0.04-0.09,0.01c0.14-0.01,0.27-0.03,0.41-0.05
				c0.35-0.04,0.71-0.06,1.06-0.08c2.01-0.12,4.02-0.22,6.03-0.38c3.63-0.29,7.24-0.7,10.84-1.26c5.23-0.82,10.39-2.04,15.27-4.12
				c6.39-2.72,11.38-7.19,14.03-13.67c1.9-4.65,2.31-9.73,3.93-14.47c0.1-0.3,0.21-0.61,0.33-0.91c0.05-0.13,0.1-0.27,0.16-0.4
				c0.03-0.07,0.05-0.13,0.08-0.2c0.2-0.52-0.06,0.28-0.14,0.32c0.29-0.14,0.68-1.45,0.85-1.77c0.32-0.59,0.66-1.17,1.04-1.72
				c0.17-0.25,0.36-0.5,0.53-0.75c0.4-0.58-0.45,0.53-0.08,0.1c0.13-0.15,0.25-0.31,0.38-0.46c0.46-0.55,0.96-1.07,1.48-1.57
				c0.28-0.27,0.57-0.53,0.87-0.78c0.28-0.24,1.27-0.96,0.44-0.38c1.5-1.06,3.01-2.03,4.66-2.84c0.41-0.2,0.82-0.4,1.24-0.58
				c0.1-0.05,0.94-0.41,0.46-0.2c-0.47,0.2,0.44-0.18,0.57-0.23c1.1-0.43,2.21-0.83,3.34-1.18c2.61-0.83,5.28-1.47,7.96-2
				c1.59-0.31,3.2-0.59,4.8-0.83c0.38-0.06,0.76-0.11,1.14-0.17c0.19-0.03,0.39-0.05,0.58-0.08c-0.54,0.07,0.11-0.01,0.24-0.03
				c0.97-0.12,1.95-0.24,2.92-0.35c4.06-0.44,8.14-0.73,12.23-0.92c4.9-0.23,9.81-0.31,14.72-0.32
				C989.53,273.63,989.54,267.63,985.67,267.63L985.67,267.63z"/>
		</g>
	</g>
	<g>
		<g>
			<path class="st8" d="M1001,321.69c-10.16-3.26-20.79-6-31.52-6.28c-6.89-0.18-14.03,0.83-20.11,4.25
				c-4.97,2.8-8.85,7.15-11.59,12.11c-2.82,5.1-4.62,10.74-6.15,16.34c-1.6,5.81-2.93,11.7-4.7,17.46c-0.44,1.42-0.9,2.84-1.4,4.25
				c-0.25,0.7-0.51,1.39-0.78,2.08c-0.13,0.33-0.26,0.66-0.39,0.99c-0.07,0.16-0.14,0.33-0.2,0.49c-0.19,0.46,0.26-0.6-0.01,0.01
				c-1.19,2.69-2.52,5.31-4.15,7.77c-0.4,0.6-0.82,1.19-1.25,1.78c-0.23,0.31-0.33,0.43-0.01,0.02c-0.11,0.14-0.21,0.27-0.32,0.41
				c-0.24,0.29-0.48,0.59-0.72,0.87c-0.95,1.12-1.98,2.17-3.06,3.16c-0.56,0.5-1.14,0.97-1.71,1.45c-0.42,0.35,0.47-0.34,0.03-0.02
				c-0.15,0.11-0.29,0.22-0.44,0.33c-0.35,0.25-0.7,0.5-1.06,0.74c-1.84,1.24-3.74,2.32-5.47,3.73c-7.77,6.34-9.51,16.5-8.53,25.98
				c1.17,11.41,4.92,22.39,8.08,33.35c1.64,5.7,3.2,11.44,4.29,17.27c0.55,2.93,0.87,5.08,1.1,8c0.24,3.01,0.21,6.03,0.31,9.05
				c0.22,6.38,0.99,13.02,4.59,18.48c3.74,5.68,9.89,9.59,16.23,11.81c12.11,4.23,25.27,1.18,36.54-4.05
				c5.72-2.66,11.13-5.97,16.23-9.68c4.99-3.62,10.16-7.46,13.92-12.41c7-9.21,7.92-21.52,4.88-32.4
				c-3.1-11.09-9.95-20.91-19.3-27.6c-6.69-4.78-14.69-8.38-23.04-8.4c-6.53-0.02-12.84,2.32-17.7,6.69
				c-4.29,3.85-7.31,9.34-8.19,15.04c-0.95,6.08,0.13,12.36,3.53,17.56c4.13,6.33,10.79,10.35,17.93,12.49
				c4.57,1.37,9.37,1.99,14.13,2.2c1.62,0.07,3-1.43,3-3c0-1.68-1.37-2.93-3-3c-2.6-0.11-4.85-0.33-6.9-0.68
				c-2.07-0.35-4.11-0.83-6.11-1.45c-0.92-0.29-1.81-0.62-2.71-0.96c-0.12-0.05-0.85-0.35-0.14-0.05c-0.21-0.09-0.42-0.18-0.62-0.27
				c-0.41-0.18-0.81-0.37-1.21-0.57c-1.56-0.78-3.03-1.69-4.44-2.71c-0.14-0.1-0.67-0.54-0.02-0.01c-0.15-0.12-0.3-0.24-0.45-0.37
				c-0.25-0.2-0.49-0.41-0.73-0.62c-0.6-0.54-1.18-1.1-1.72-1.7c-0.24-0.27-0.48-0.54-0.72-0.82c-0.11-0.14-0.22-0.28-0.34-0.42
				c-0.42-0.49,0.4,0.57,0.04,0.05c-0.4-0.57-0.81-1.13-1.17-1.73c-0.35-0.58-0.68-1.18-0.98-1.79c-0.15-0.3-0.28-0.61-0.42-0.91
				c0.43,0.94-0.09-0.27-0.18-0.52c-0.44-1.24-0.72-2.5-0.97-3.79c-0.04-0.22-0.09-0.82,0.01,0.16c-0.02-0.16-0.04-0.32-0.06-0.48
				c-0.03-0.32-0.06-0.64-0.08-0.96c-0.04-0.64-0.05-1.28-0.04-1.92c0.02-0.64,0.08-1.28,0.13-1.91c0.02-0.22,0.13-0.81-0.03,0.16
				c0.03-0.16,0.04-0.32,0.07-0.47c0.06-0.37,0.13-0.73,0.2-1.1c0.26-1.26,0.65-2.47,1.09-3.67c0.06-0.15,0.12-0.3,0.18-0.45
				c-0.33,0.88-0.14,0.32-0.05,0.13c0.13-0.27,0.24-0.53,0.37-0.8c0.29-0.6,0.61-1.19,0.96-1.76c0.33-0.55,0.69-1.09,1.06-1.61
				c0.09-0.13,0.2-0.26,0.29-0.39c0.34-0.5-0.47,0.55-0.07,0.1c0.21-0.24,0.41-0.5,0.62-0.74c0.89-1.03,1.88-1.94,2.92-2.82
				c0.16-0.13,0.65-0.46-0.09,0.07c0.13-0.1,0.26-0.2,0.4-0.29c0.23-0.16,0.45-0.32,0.68-0.47c0.6-0.4,1.22-0.77,1.85-1.12
				c0.3-0.16,0.6-0.31,0.9-0.46c0.22-0.1,1.31-0.56,0.37-0.18c0.64-0.26,1.28-0.5,1.94-0.71c0.67-0.21,1.35-0.39,2.04-0.54
				c0.35-0.08,0.7-0.14,1.06-0.2c0.18-0.03,0.36-0.05,0.54-0.08c-0.97,0.17-0.1,0.02,0.11-0.01c1.52-0.16,3.06-0.18,4.59-0.07
				c0.4,0.03,0.8,0.07,1.2,0.11c0.18,0.02,0.88,0.14,0.01,0c0.2,0.03,0.41,0.06,0.61,0.1c0.84,0.14,1.68,0.32,2.51,0.53
				c0.87,0.22,1.73,0.48,2.58,0.76c0.44,0.15,0.88,0.31,1.32,0.47c0.22,0.08,0.44,0.17,0.67,0.26c0.15,0.06,0.3,0.12,0.45,0.18
				c-0.34-0.15-0.36-0.15-0.04-0.01c8.95,4.14,16.02,10.14,20.91,18.55c2.64,4.55,4.39,9.11,5.38,14.41
				c0.42,2.26,0.64,4.89,0.56,7.57c-0.08,2.65-0.32,4.39-1.05,7.05c-0.71,2.56-1.44,4.3-2.83,6.6c-1.41,2.35-2.94,4.19-5.08,6.1
				c-4.3,3.85-8.79,7.24-13.65,10.37c-9.74,6.28-21.03,11.48-32.61,11.4c-5.54-0.04-10.95-1.44-15.8-4.35
				c-2.47-1.48-4.85-3.25-6.61-5.56c-1.84-2.41-2.84-4.94-3.5-7.85c-1.24-5.45-0.78-11.35-1.19-17.09
				c-0.4-5.7-1.48-11.34-2.82-16.88c-2.67-11.02-6.48-21.73-9.01-32.79c-1.17-5.12-1.93-9.2-1.94-14.38c0-1.02,0.03-2.03,0.11-3.04
				c0.02-0.27,0.05-0.54,0.08-0.81c0.01-0.09,0.12-0.98,0.02-0.26c0.09-0.61,0.19-1.21,0.32-1.81c0.21-1.01,0.48-2,0.82-2.97
				c0.08-0.24,0.17-0.48,0.26-0.72c0,0,0.32-0.76,0.14-0.34c-0.18,0.42,0.16-0.34,0.16-0.33c0.14-0.3,0.29-0.61,0.45-0.9
				c0.48-0.9,1.03-1.76,1.64-2.58c-0.4,0.54,0.12-0.14,0.17-0.2c0.17-0.2,0.34-0.4,0.52-0.59c0.42-0.46,0.86-0.91,1.32-1.33
				c0.34-0.31,0.69-0.61,1.04-0.9c0.71-0.58-0.46,0.33,0.29-0.22c0.23-0.17,0.47-0.34,0.71-0.5c0.86-0.59,1.77-1.09,2.64-1.65
				c2.64-1.69,5.09-3.72,7.22-6.03c8.14-8.85,11.42-20.73,14.34-32.09c1.4-5.46,2.74-10.95,4.7-16.25c0.23-0.62,0.47-1.24,0.72-1.86
				c0.06-0.15,0.13-0.3,0.19-0.46c0.22-0.57-0.3,0.67-0.05,0.11c0.13-0.3,0.26-0.6,0.39-0.89c0.55-1.21,1.14-2.41,1.8-3.57
				c0.62-1.09,1.28-2.14,2.02-3.16c0.14-0.2,0.84-1.07,0.18-0.26c0.19-0.24,0.38-0.48,0.58-0.72c0.39-0.47,0.8-0.93,1.23-1.38
				c0.42-0.45,0.87-0.88,1.32-1.29c0.23-0.21,0.46-0.41,0.7-0.61c0.2-0.17,1.22-0.92,0.37-0.31c1.04-0.75,2.09-1.46,3.22-2.08
				c0.59-0.32,1.18-0.6,1.79-0.88c0.73-0.34-0.56,0.2,0.31-0.13c0.35-0.13,0.7-0.27,1.06-0.4c1.45-0.51,2.94-0.91,4.45-1.2
				c0.32-0.06,0.64-0.12,0.97-0.18c0.23-0.04,1.55-0.22,0.6-0.1c0.91-0.11,1.82-0.21,2.73-0.27c1.85-0.12,3.7-0.13,5.55-0.06
				c2.18,0.08,4.35,0.29,6.52,0.56c-0.61-0.08,0.71,0.1,0.88,0.13c0.58,0.09,1.15,0.18,1.73,0.27c1.31,0.22,2.61,0.47,3.91,0.73
				c5.46,1.13,10.84,2.64,16.15,4.35c1.54,0.49,3.27-0.58,3.69-2.1C1003.54,323.76,1002.55,322.19,1001,321.69L1001,321.69z"/>
		</g>
	</g>
	<g>
		<g>
			<path class="st10" d="M720.22,221.32c-6.08-6.86-10.42-15.1-12.76-23.96c-0.98-3.73-6.77-2.15-5.79,1.6
				c2.61,9.87,7.54,18.97,14.3,26.6c1.07,1.21,3.15,1.1,4.24,0C721.42,224.36,721.29,222.54,720.22,221.32L720.22,221.32z"/>
		</g>
	</g>
	<g>
		<g>
			<path class="st10" d="M723.39,206.23c-0.39-4-0.77-8-1.16-11.99c-0.08-0.81-0.28-1.52-0.88-2.12c-0.52-0.52-1.37-0.91-2.12-0.88
				c-1.5,0.07-3.16,1.33-3,3c0.39,4,0.77,8,1.16,11.99c0.08,0.81,0.28,1.52,0.88,2.12c0.52,0.52,1.37,0.91,2.12,0.88
				C721.89,209.16,723.55,207.9,723.39,206.23L723.39,206.23z"/>
		</g>
	</g>
	<g>
		<g>
			<path class="st10" d="M908.76,518.79c6.82,5.31,13.75,10.69,22,13.6c7.76,2.74,16.66,2.86,24-1.16c3.39-1.86,0.36-7.04-3.03-5.18
				c-6.09,3.34-13.43,2.74-19.76,0.42c-7.03-2.57-13.11-7.36-18.96-11.91c-1.28-0.99-3-1.25-4.24,0
				C907.72,515.58,907.47,517.78,908.76,518.79L908.76,518.79z"/>
		</g>
	</g>
	<g>
		<g>
			<path class="st10" d="M938.12,427.07c1.64-4.04,5.86-6.97,9.98-8.33c5.83-1.93,12.1-1.56,18.13-1.17c1.62,0.1,3-1.45,3-3
				c0-1.71-1.38-2.9-3-3c-6.9-0.44-14.21-0.75-20.79,1.76c-5.87,2.25-10.72,6.24-13.12,12.15c-0.61,1.5,0.66,3.3,2.1,3.69
				C936.15,429.64,937.51,428.58,938.12,427.07L938.12,427.07z"/>
		</g>
	</g>
	<g>
		<g>
			<path class="st10" d="M891.57,270.12c10.04-10.26,23.17-17.11,37.27-19.7c3.93-0.72,7.91-1.05,11.9-1.06c3.86-0.01,3.87-6.01,0-6
				c-15.38,0.03-30.74,4.95-43.27,13.88c-3.62,2.58-7.02,5.45-10.13,8.63C884.63,268.64,888.86,272.88,891.57,270.12L891.57,270.12z
				"/>
		</g>
	</g>
	<g>
		<g>
			<path class="st10" d="M918.62,326.76c7.94-4.01,13.96-11.56,16.21-20.15c0.4-1.52-0.5-3.33-2.1-3.69
				c-1.57-0.36-3.26,0.47-3.69,2.1c-0.26,0.98-0.56,1.95-0.92,2.9c-0.08,0.22-0.17,0.43-0.25,0.64c-0.19,0.47,0.29-0.63-0.08,0.17
				c-0.19,0.42-0.39,0.84-0.6,1.25c-0.46,0.9-0.97,1.78-1.52,2.63c-0.25,0.39-0.51,0.77-0.78,1.14c-0.16,0.22-0.33,0.45-0.49,0.67
				c0.26-0.34-0.01,0-0.13,0.15c-1.22,1.5-2.6,2.88-4.09,4.1c-0.15,0.12-0.49,0.39-0.15,0.13c-0.22,0.17-0.44,0.33-0.67,0.49
				c-0.37,0.27-0.75,0.53-1.14,0.78c-0.85,0.55-1.73,1.05-2.64,1.51c-1.4,0.71-1.92,2.8-1.08,4.1
				C915.44,327.12,917.12,327.52,918.62,326.76L918.62,326.76z"/>
		</g>
	</g>
	<g>
		<g>
			<path class="st10" d="M750.79,220.17c6.47,15.28,19.31,27.36,34.72,33.35c1.51,0.59,3.29-0.65,3.69-2.1
				c0.47-1.7-0.58-3.1-2.1-3.69c-13.97-5.43-25.3-16.79-31.14-30.59c-0.63-1.49-2.83-1.82-4.1-1.08
				C750.32,216.97,750.16,218.67,750.79,220.17L750.79,220.17z"/>
		</g>
	</g>
	<g>
		<g>
			<path class="st10" d="M847.68,327.66c-0.17-0.9-0.01,0.52-0.05-0.39c-0.01-0.25-0.02-0.49-0.02-0.74c0-0.25,0.02-0.49,0.04-0.73
				c-0.04,0.58,0.06-0.31,0.07-0.37c0.1-0.49,0.25-0.95,0.4-1.42c0.15-0.48-0.03,0.02,0.09-0.25c0.1-0.23,0.21-0.45,0.33-0.67
				c0.26-0.49,0.55-0.96,0.87-1.42c0.08-0.11,0.42-0.55,0.17-0.25c0.19-0.24,0.39-0.47,0.6-0.69c0.35-0.38,0.71-0.73,1.09-1.07
				c-0.01,0.01,0.71-0.6,0.34-0.3c0.2-0.16,0.41-0.3,0.62-0.44c3.8-2.59,8.38-3.45,13.04-4.35c1.59-0.31,2.5-2.21,2.1-3.69
				c-0.46-1.66-2.09-2.41-3.69-2.1c-5.48,1.07-11.13,2.31-15.63,5.82c-4.48,3.49-7.2,8.96-6.15,14.66c0.29,1.59,2.23,2.5,3.69,2.1
				C847.26,330.89,847.98,329.26,847.68,327.66L847.68,327.66z"/>
		</g>
	</g>
</g>
</svg>
