<?xml version="1.0" encoding="utf-8"?>
<!-- Generator: Adobe Illustrator 24.0.1, SVG Export Plug-In . SVG Version: 6.00 Build 0)  -->
<svg version="1.1" id="Layer_1" xmlns="http://www.w3.org/2000/svg" xmlns:xlink="http://www.w3.org/1999/xlink" x="0px" y="0px"
	 viewBox="0 0 1280 1024" style="enable-background:new 0 0 1280 1024;" xml:space="preserve">
<style type="text/css">
	.st0{fill:#FCF07E;stroke:#FCF07E;stroke-width:20;stroke-linecap:round;stroke-miterlimit:10;}
	.st1{fill:#A4DCFF;}
	.st2{fill:#84F784;}
	.st3{fill:#666666;}
	.st4{fill:none;stroke:#666666;stroke-width:9;stroke-linecap:round;stroke-miterlimit:10;}
	.st5{fill:#F4F4F4;}
	.st6{fill:#D3D3D3;}
	.st7{fill:#BEBEBF;}
	.st8{fill:#999999;}
	.st9{fill:#CCCCCC;}
	.st10{fill:#B3B3B3;}
	.st11{fill:#E6E6E6;}
	.st12{fill:none;stroke:#29ABE2;stroke-width:17;stroke-linecap:round;stroke-miterlimit:10;stroke-dasharray:25,35;}
	.st13{fill:none;stroke:#F2F2F2;stroke-width:17;stroke-linecap:round;stroke-miterlimit:10;stroke-dasharray:25,35;}
	.st14{fill:none;stroke:#000000;stroke-width:6;stroke-miterlimit:10;}
	.st15{fill:#FFFFFF;stroke:#FFFFFF;stroke-width:10;stroke-linecap:round;stroke-miterlimit:10;}
	.st16{fill:#FFFFFF;stroke:#E6E6E6;stroke-width:10;stroke-linecap:round;stroke-miterlimit:10;}
	.st17{fill:none;stroke:#F2F2F2;stroke-width:17;stroke-linecap:round;stroke-miterlimit:10;}
	.st18{fill:none;stroke:#CCCCCC;stroke-width:17;stroke-linecap:round;stroke-miterlimit:10;}
	.st19{fill:#FCF07E;stroke:#FCF07E;stroke-width:14;stroke-linecap:round;stroke-miterlimit:10;}
	.st20{fill:none;stroke:#F2F2F2;stroke-width:17;stroke-linecap:round;stroke-miterlimit:10;stroke-dasharray:2,35;}
	.st21{fill:#F7C161;stroke:#999999;stroke-width:8;stroke-miterlimit:10;}
	.st22{fill:#666666;stroke:#999999;stroke-width:8;stroke-linecap:round;stroke-miterlimit:10;}
	.st23{fill:none;stroke:#666666;stroke-width:6;stroke-linecap:round;stroke-miterlimit:10;}
	.st24{opacity:0.65;}
	.st25{fill:#808080;stroke:#4D4D4D;stroke-width:3;stroke-linecap:round;stroke-miterlimit:10;}
	.st26{fill:#999999;stroke:#4D4D4D;stroke-width:3;stroke-linecap:round;stroke-miterlimit:10;}
	.st27{fill:#B3B3B3;stroke:#4D4D4D;stroke-width:3;stroke-linecap:round;stroke-miterlimit:10;}
	.st28{fill:#CCCCCC;stroke:#4D4D4D;stroke-width:3;stroke-linecap:round;stroke-miterlimit:10;}
	.st29{fill:#E6E6E6;stroke:#4D4D4D;stroke-width:3;stroke-linecap:round;stroke-miterlimit:10;}
	.st30{fill:#F2F2F2;stroke:#4D4D4D;stroke-width:3;stroke-linecap:round;stroke-miterlimit:10;}
</style>
<g>
	<g>
		<g>
			<circle class="st1" cx="579.52" cy="531.73" r="384.01"/>
			<path class="st2" d="M811.09,812.27c-4.12-14.98-2.45-30.45-4.16-45.69c-0.51-4.56-1.9-10.12-4.77-14.64
				c-1.77-2.79-2.73-3.83-5.26-6.4c-0.75-0.77-1.53-1.51-2.33-2.23c0,0-2.46-1.93-2.42-1.96c-2.23-1.53-4.58-2.82-6.99-4.06
				c-0.35-0.18-0.59-0.31-0.79-0.42c-0.23-0.06-0.51-0.14-0.91-0.26c-1.38-0.42-2.73-0.91-4.13-1.3c-2.33-0.64-4.7-1.1-7.08-1.54
				c-0.32-0.06-0.58-0.11-0.79-0.15c-0.24-0.01-0.55-0.02-0.97-0.04c-1.23-0.07-2.46-0.2-3.7-0.27
				c-11.56-0.65-23.13,0.51-34.64,1.43c-24.49,1.96-50.13,2.23-71.56-11.64c-6.89-4.45-9.85-13.58-5.48-20.9
				c1.94-3.24,3.79-6.54,5.47-9.92c0.81-1.64,1.59-3.3,2.33-4.97c0.15-0.36,0.41-0.98,0.48-1.15c2.24-5.73,4.05-11.63,5.3-17.66
				c0.26-1.27,0.49-2.55,0.7-3.83c-0.07,0.31,0.3-2.18,0.34-2.6c0.24-2.54,0.39-5.09,0.42-7.65c0.04-2.89-0.06-5.78-0.29-8.66
				c-0.06-0.69-0.14-1.38-0.21-2.06c-0.07-0.52-0.25-1.84-0.33-2.23c-1.01-4.97-2.19-9.83-3.92-14.6c-0.28-0.77-2.31-5.44-0.57-1.62
				c-0.31-0.68-0.6-1.38-0.93-2.05c-1.16-2.33-2.31-4.66-3.61-6.91c-1.1-1.9-2.27-3.76-3.51-5.58c-0.57-0.84-1.18-1.66-1.78-2.48
				c-0.34-0.45-0.84-1.1-1.05-1.34c-3.02-3.46-6.12-6.8-9.58-9.84c-0.78-0.68-1.6-1.32-2.37-2.01c-0.06-0.05-0.09-0.08-0.14-0.13
				c0,0,0,0-0.01,0c-1.54-1.05-3.02-2.16-4.59-3.16c-3.19-2.05-6.53-3.66-9.89-5.39c-0.89-0.29-1.77-0.67-2.66-0.97
				c-1.63-0.56-3.27-1.05-4.94-1.48c-1.62-0.42-3.27-0.66-4.89-1.05c-0.75-0.06-1.5-0.14-2.26-0.19c-1.77-0.1-3.54-0.12-5.3-0.04
				c-0.63,0.03-1.26,0.09-1.89,0.14c-1.33,0.45-2.96,0.54-4.31,0.91c-1.23,0.34-5.96,2.37-2.79,0.83c-1.32,0.63-2.64,1.26-3.91,2.02
				c-0.43,0.25-1.99,1.35-2.84,1.92c-0.8,0.72-2.25,1.98-2.6,2.33c-0.67,0.66-3.09,3.68-2.94,3.32c-1.97,2.89-3.67,5.87-5.24,9.02
				c-0.06,0.12-0.13,0.27-0.2,0.44c-0.22,0.59-0.35,0.94-0.42,1.1c-0.23,0.6-0.45,1.2-0.66,1.8c-0.81,2.37-1.51,4.78-2.11,7.22
				c-1.39,5.64-1.78,8.14-1.19,12.62c0.42,3.19,2.77,10.8,4.29,15.57c4.4,13.78,6.89,27.34,4.08,41.76
				c-2.66,13.7-10.24,29-22.11,36.96c-7.9,5.3-16.96,5.83-25.77,8.55c-0.88,0.27-1.76,0.57-2.63,0.89c0.22-0.03-2.48,1.17-2.67,1.27
				c-2.5,1.35-4.88,2.94-7.22,4.55c-4.5,3.1-6.96,5.09-11.92,9.66c-4.39,4.05-8.52,8.36-12.45,12.85c-1.91,2.18-3.76,4.4-5.57,6.66
				c-2.1,2.62-2.02,2.54-4.4,5.81c-7.46,10.24-14.19,20.98-20.64,31.87c-15.62,26.36-30.1,53.9-47.37,79.29
				c48.1,21.69,101.47,33.78,157.67,33.78c90.8,0,174.22-31.53,239.96-84.22C815.88,825.55,812.99,819.15,811.09,812.27z"/>
			<path class="st2" d="M961.28,490.12C944.55,334.9,835.35,207.41,689.86,163.84c-0.37,1.52-0.7,3.06-0.97,4.6
				c-0.08,0.47-0.14,0.7-0.17,0.78c-0.02,0.26-0.05,0.56-0.08,0.92c-0.15,1.73-0.28,3.45-0.34,5.19c-0.21,6.24-0.06,12.7,1.57,18.76
				c1.39,5.15,2.67,7.28,5.9,12.33c0.31,0.43,0.53,0.73,0.67,0.93c0.45,0.54,0.89,1.09,1.35,1.62c0.61,0.71,1.23,1.4,1.86,2.09
				c1.7,1.88,3.47,3.69,5.21,5.53c3.91,4.13,7.61,8.41,10.9,13.06c6.54,9.22,10.3,21.07,11.2,32.31
				c1.6,19.85-8.66,38.68-17.42,55.75c-2.46,4.79-4.92,9.58-7.17,14.47c-0.37,0.8-0.73,1.62-1.1,2.42
				c-0.12,0.25-0.21,0.46-0.29,0.63c-0.06,0.16-0.13,0.35-0.21,0.57c-0.76,2.02-1.54,4.02-2.21,6.07c-0.78,2.4-1.47,4.83-2.01,7.3
				c-0.22,1.01-0.4,2.03-0.59,3.04c0,0,0,0.01,0,0.01c0,0.07,0,0.11,0,0.18c-0.01,2.02-0.13,4.05-0.14,6.08
				c0,0.53,0.29,2.53,0.26,2.48c0.09,0.45,0.18,0.9,0.29,1.35c0.34,1.44,0.82,2.83,1.25,4.24c0.04,0.12,0.06,0.21,0.09,0.31
				c0.04,0.08,0.09,0.16,0.15,0.28c1.17,2.3,2.43,4.52,3.91,6.64c0.09,0.12,0.44,0.57,0.69,0.88c0.93,1.12,1.91,2.2,2.92,3.24
				c2.05,2.12,4.23,4.11,6.5,5.98c10.1,8.37,21.04,13.54,33.25,13.88c27.3,0.75,54.2-12.47,82.38-13.14
				c20.01-0.47,38.87,5.95,53.85,19.25c11.66,10.35,19.82,24.31,26.72,38.11c6.32,12.64,11.71,25.96,19.76,37.64
				c0.44,0.64,0.9,1.26,1.35,1.89c0.97,1.04,1.85,2.17,2.84,3.2c0.97,1.01,2.02,1.94,3.04,2.9c0.15,0.14,0.27,0.26,0.38,0.37
				c0.13,0.07,0.27,0.16,0.45,0.27c1.37,0.83,2.82,1.57,4.17,2.42c0.5,0.17,0.99,0.36,1.49,0.51c1.52,0.47,3.16,0.6,4.66,1.09
				c-4.18-1.37-0.49-0.09,1.46-0.04c2.03,0.05,4.01-0.15,6.03-0.26c-4.53,0.23,1.39-0.29,2.51-0.53
				C957.92,491.07,959.61,490.61,961.28,490.12z"/>
			<path class="st2" d="M261.52,694.57c27.09,0.82,50.72-2.64,76.75-9.73c25.02-6.81,46.91-14.26,68.15-29.12
				c2.99-2.09,6.75-5.14,10.85-9.48c1.25-1.32,2.43-2.69,3.58-4.09c-0.43,0.43,2.31-3.38,2.78-4.13c1.35-2.19,2.41-4.5,3.65-6.75
				c0.07-0.13,0.13-0.23,0.19-0.33c0.03-0.1,0.06-0.18,0.1-0.31c0.24-0.73,0.55-1.45,0.8-2.18c1.43-4.09,2.35-8.26,3.22-12.5
				c0.12-0.7,0.24-1.41,0.35-2.11c0.11-1.15,0.25-2.3,0.35-3.45c0.18-2.08,0.3-4.17,0.39-6.25c0.2-4.81,0.17-9.62,0.03-14.43
				c-0.32-11.14-1.23-22.25-1.99-33.36c-0.84-12.47-1.44-24.95-2.16-37.43c-0.58-10.1-1.26-20.31-0.46-30.41
				c1.52-19.32,9.01-36.68,26.96-46.03c20.32-10.58,43.58-11.61,65.99-11.26c2.54,0.04,5.09,0.07,7.64-0.03
				c0.95-0.04,3.59-0.48,3.77-0.45c0.8-0.2,1.6-0.39,2.4-0.59c0.12-0.1,0.24-0.21,0.35-0.29c-0.86,0.37,0.94-0.56,1.94-1.29
				c0.02-0.02,0.04-0.03,0.06-0.04c0.81-1.28,1.55-2.58,2.24-3.92c0.16-0.45,0.92-2.22,1.01-2.51c0.32-0.95,0.62-1.91,0.9-2.88
				c0.93-3.18,1.76-6.47,2.3-9.74c-0.15,0.67,0.31-4.05,0.32-4.72c0.02-1.17,0-2.35-0.04-3.52c-0.15-3.88-0.39-5.13-1.12-8.5
				c-1.3-6.01-3.44-12.56-5.79-17.55c-2.64-5.61-7.08-13.18-9.83-16.75c-1.64-2.13-3.45-4.17-5.34-6.09
				c-0.95-0.97-1.96-1.88-2.95-2.81c-0.17-0.06-0.37-0.18-0.58-0.34c-1.6-0.84-4.91-2.86-5.83-3.43c-0.47-0.18-0.95-0.37-1.43-0.54
				c-1.52-0.55-3.06-1.06-4.61-1.53c-7.27-2.25-14.73-3.86-22.2-5.3c-16.52-3.2-33.22-5.35-49.77-8.41
				c-11.89-2.2-27.32-4.39-36.11-13.6c-6.3-6.6-7.54-16.28-2.84-24.19c3.71-6.25,10.34-10.54,16.63-13.84
				c9.4-4.95,19.42-9.24,29.98-10.78c9.96-1.46,19.89-1.18,29.92-1.47c0.25-0.01,0.46-0.01,0.64-0.01c0.03-0.01,0.04-0.02,0.08-0.03
				c0.55-0.18,1.27-0.39,1.93-0.53c0.05-0.03,0.11-0.07,0.18-0.11c0.2-0.15,0.38-0.26,0.53-0.35c0.04-0.06,0.08-0.12,0.12-0.19
				c0.06-0.2,0.11-0.37,0.16-0.51c0.26-0.85,0.53-1.69,0.73-2.57c0.17-0.75,0.31-1.51,0.45-2.26c0.03-0.27,0.06-0.62,0.11-1.08
				c0.07-1.17,0.16-2.34,0.21-3.51c0.07-1.82,0.11-3.65,0.04-5.47c-0.01-0.17-0.39-3.48-0.26-3.07c-0.38-2-0.91-3.97-1.57-5.89
				c-0.13-0.39-1.63-3.67-0.84-2.08c-0.48-0.98-0.96-1.95-1.49-2.9c-4.86-8.85-11.68-16.48-16.24-25.5
				c-6.57-12.99-7.99-25.97-5.87-40.24c-148.86,52.87-255.46,194.95-255.46,361.94c0,56.77,12.33,110.65,34.44,159.14
				C240.4,693.07,251.08,694.25,261.52,694.57z"/>
		</g>
		<circle class="st3" cx="426.16" cy="432.35" r="55.21"/>
		<circle class="st3" cx="743.92" cy="432.35" r="55.21"/>
		<path class="st4" d="M662.95,531.73c0,27.78-32.96,50.3-73.61,50.3c-40.66,0-73.61-22.52-73.61-50.3"/>
	</g>
	<g>
		<g>
			<path class="st8" d="M826.75,128.53c-1.33-4.86-3.6-9.4-6.9-13.22c-2.75-3.19-6.28-5.74-10.15-7.4
				c-4.07-1.75-8.42-2.64-12.85-2.65c-4.24-0.01-8.54,0.75-12.51,2.2c-4.32,1.58-8.28,3.86-11.79,6.84
				c-3.39,2.88-6.26,6.48-8.28,10.43c-2.31,4.52-3.58,9.43-3.89,14.49c-0.35,5.72,0.62,11.54,2.39,16.97
				c2.28,6.99,5.82,13.54,10,19.57c5.49,7.92,12.01,15.09,19.01,21.68c9.23,8.68,19.31,16.45,29.74,23.63
				c6.27,4.32,12.68,8.41,19.2,12.34c1.71,1.03,3.42,2.05,5.15,3.05c1.9,1.11,3.81,2.41,5.84,3.25c1.68,0.7,3.39,1.31,5.14,1.82
				c6.94,2,14.19,2.21,21.28,0.91c6.98-1.28,13.64-4.1,19.85-7.48c6.67-3.64,12.91-8.01,18.97-12.58
				c6.68-5.03,13.17-10.31,19.73-15.5c1.62-1.28,3.25-2.55,4.88-3.82c0.27-0.21-0.1,0.08-0.13,0.1c0.1-0.07,0.19-0.15,0.29-0.22
				c0.22-0.17,0.45-0.35,0.67-0.52c0.42-0.32,0.84-0.64,1.26-0.96c0.84-0.64,1.68-1.27,2.52-1.9c3.3-2.46,6.64-4.85,10.07-7.13
				c3.41-2.27,6.9-4.42,10.49-6.39c1.79-0.98,3.6-1.92,5.44-2.8c0.88-0.42,1.76-0.83,2.65-1.23c0.46-0.21,0.92-0.41,1.39-0.61
				c0.54-0.23-0.4,0.16,0.14-0.06c0.25-0.1,0.5-0.21,0.75-0.31c3.68-1.49,7.46-2.73,11.33-3.65c1.91-0.46,3.85-0.84,5.8-1.13
				c0.23-0.03,0.46-0.07,0.69-0.1c0.44-0.06-0.55,0.07-0.11,0.01c0.12-0.01,0.23-0.03,0.35-0.04c0.5-0.06,1.01-0.12,1.51-0.17
				c1.01-0.1,2.03-0.18,3.04-0.23c2.02-0.11,4.05-0.12,6.08-0.03c1.05,0.05,2.11,0.12,3.16,0.21c0.49,0.05,0.98,0.1,1.47,0.15
				c0.25,0.03,0.49,0.06,0.74,0.09c0.06,0.01,0.48,0.06,0.09,0.01c-0.44-0.06,0.34,0.05,0.34,0.05c4.41,0.66,8.75,1.74,12.96,3.2
				c1.1,0.38,2.2,0.79,3.28,1.22c0.27,0.11,0.53,0.21,0.79,0.32c0.13,0.05,0.75,0.31,0.57,0.24c-0.18-0.08,0.44,0.19,0.57,0.25
				c0.31,0.14,0.62,0.28,0.94,0.42c2.31,1.04,4.57,2.18,6.78,3.4c3.39,1.86,6.42-3.32,3.03-5.18c-8.39-4.61-17.47-8.15-26.96-9.6
				c-8.35-1.27-16.77-1.03-25.04,0.73c-7.87,1.68-15.42,4.71-22.53,8.42c-7.19,3.75-13.96,8.24-20.5,13.01
				c-6.74,4.92-13.25,10.13-19.77,15.33c-1.59,1.27-3.18,2.53-4.78,3.79c-0.78,0.61-1.55,1.22-2.33,1.83
				c-0.4,0.31-0.81,0.63-1.21,0.94c-0.19,0.14-0.37,0.29-0.56,0.43c0.47-0.36-0.05,0.04-0.23,0.18c-3.07,2.36-6.18,4.68-9.36,6.9
				c-5.94,4.16-12.15,8.02-18.81,10.93c-0.19,0.08-0.37,0.16-0.56,0.24c-0.17,0.07,0.53-0.22-0.03,0.01
				c-0.4,0.16-0.81,0.33-1.22,0.49c-0.78,0.3-1.56,0.59-2.34,0.86c-1.58,0.55-3.18,1.03-4.81,1.43c-1.61,0.4-3.23,0.65-4.85,0.95
				c-0.19,0.03,0.65-0.08,0.03-0.01c-0.19,0.02-0.38,0.05-0.57,0.07c-0.42,0.05-0.83,0.09-1.25,0.12c-0.8,0.07-1.61,0.11-2.41,0.13
				c-1.65,0.04-3.31-0.01-4.96-0.16c-0.39-0.04-0.78-0.08-1.18-0.13c-0.4-0.05-0.45-0.08,0.01,0c-0.26-0.05-0.53-0.08-0.79-0.12
				c-0.83-0.13-1.65-0.29-2.47-0.47c-1.73-0.38-3.43-0.88-5.1-1.46c-2.71-0.95-4.89-2.4-7.46-3.91
				c-12.53-7.34-24.74-15.26-36.26-24.1c-8.65-6.65-17.04-14-24.47-22.09c-1.55-1.69-3.07-3.42-4.54-5.19
				c-0.72-0.87-1.43-1.76-2.13-2.65c-0.36-0.45,0.19,0.25-0.16-0.2c-0.15-0.2-0.31-0.4-0.46-0.6c-0.33-0.43-0.65-0.86-0.97-1.3
				c-2.29-3.13-4.41-6.38-6.29-9.77c-0.85-1.54-1.65-3.11-2.38-4.71c-0.17-0.36-0.33-0.72-0.49-1.08c-0.08-0.18-0.15-0.36-0.23-0.54
				c-0.13-0.31,0.12,0.28,0.11,0.27c-0.05-0.12-0.1-0.24-0.15-0.36c-0.31-0.76-0.61-1.52-0.89-2.3c-1.01-2.76-1.8-5.61-2.32-8.5
				c-0.06-0.32-0.11-0.64-0.16-0.97c-0.02-0.16-0.05-0.32-0.07-0.48c-0.1-0.65,0.06,0.57,0.01,0.08c-0.07-0.68-0.16-1.35-0.21-2.03
				c-0.1-1.25-0.14-2.51-0.11-3.77c0.02-1.23,0.13-2.44,0.26-3.66c0.06-0.57-0.07,0.43-0.03,0.24c0.03-0.14,0.04-0.28,0.06-0.41
				c0.05-0.3,0.09-0.59,0.15-0.89c0.1-0.58,0.22-1.16,0.36-1.74c0.25-1.08,0.56-2.15,0.93-3.2c0.19-0.54,0.39-1.06,0.6-1.59
				c0.23-0.6-0.3,0.67,0.05-0.12c0.11-0.25,0.23-0.51,0.35-0.76c0.91-1.92,2.02-3.72,3.28-5.43c0.5-0.67-0.33,0.4,0.06-0.08
				c0.18-0.22,0.36-0.45,0.55-0.67c0.33-0.39,0.67-0.78,1.02-1.15c0.71-0.76,1.45-1.49,2.22-2.18c0.38-0.34,0.76-0.67,1.16-0.99
				c0.19-0.15,0.39-0.3,0.57-0.45c0.14-0.12-0.65,0.48-0.22,0.17c0.11-0.08,0.23-0.17,0.34-0.25c0.83-0.61,1.68-1.18,2.56-1.71
				c0.87-0.53,1.77-1.02,2.69-1.47c0.45-0.22,0.9-0.43,1.36-0.63c0.77-0.34-0.31,0.11,0.05-0.03c0.24-0.09,0.48-0.19,0.72-0.29
				c1.88-0.73,3.83-1.29,5.81-1.68c0.48-0.09,0.97-0.17,1.45-0.25c0.84-0.13-0.37,0.04,0.02-0.01c0.25-0.03,0.5-0.06,0.76-0.09
				c0.99-0.1,1.98-0.16,2.97-0.17c0.99-0.01,1.97,0.02,2.96,0.1c0.48,0.04,0.96,0.11,1.44,0.15c0.2,0.02-0.86-0.13-0.34-0.04
				c0.11,0.02,0.23,0.03,0.34,0.05c0.25,0.04,0.49,0.08,0.74,0.13c1.94,0.35,3.76,0.95,5.61,1.63c0.43,0.16-0.71-0.32-0.29-0.12
				c0.1,0.05,0.21,0.09,0.32,0.14c0.23,0.1,0.45,0.21,0.68,0.31c0.43,0.21,0.86,0.43,1.28,0.66c0.86,0.47,1.7,1,2.5,1.56
				c0.19,0.13,0.38,0.27,0.57,0.41c0.59,0.43-0.55-0.46,0.09,0.07c0.39,0.33,0.79,0.65,1.17,1c0.74,0.67,1.44,1.39,2.1,2.15
				c0.17,0.2,0.35,0.4,0.51,0.61c0.08,0.1,0.15,0.19,0.23,0.29c0.34,0.41,0.1-0.03-0.13-0.17c0.35,0.21,0.69,0.94,0.91,1.28
				c0.62,0.91,1.18,1.86,1.69,2.84c0.25,0.48,0.48,0.96,0.7,1.45c0.06,0.12,0.11,0.25,0.17,0.37c0.2,0.45,0.06-0.01-0.09-0.21
				c0.15,0.21,0.22,0.54,0.31,0.77c0.43,1.12,0.8,2.27,1.12,3.43C821.98,133.84,827.77,132.26,826.75,128.53L826.75,128.53z"/>
		</g>
	</g>
	<g>
		<g>
			<path class="st8" d="M1064.09,212.87c-11.57,0-23.17,0.35-34.67,1.7c-7.71,0.9-15.46,2.16-22.84,4.63
				c-8.73,2.92-17.19,7.76-21.52,16.22c-3.07,6-3.73,12.66-5.62,19.04c-0.23,0.77-0.48,1.54-0.75,2.3
				c-0.13,0.36-0.28,0.72-0.42,1.09c-0.29,0.73,0.21-0.45,0.06-0.13c-0.1,0.21-0.19,0.42-0.28,0.63c-0.7,1.51-1.55,2.92-2.52,4.28
				c-0.46,0.65,0.28-0.32,0.05-0.07c-0.15,0.17-0.29,0.36-0.44,0.54c-0.28,0.33-0.57,0.65-0.86,0.97c-0.65,0.69-1.34,1.34-2.07,1.95
				c-0.18,0.15-0.37,0.3-0.55,0.45c-0.42,0.35,0.64-0.47-0.08,0.06c-0.45,0.32-0.89,0.64-1.35,0.95c-0.91,0.6-1.84,1.15-2.8,1.65
				c-0.52,0.27-1.04,0.53-1.57,0.78c-0.3,0.14-0.6,0.28-0.91,0.42c-0.1,0.05-0.21,0.09-0.31,0.14c-0.76,0.34,0.42-0.16-0.08,0.03
				c-1.29,0.51-2.58,1-3.89,1.43c-3.15,1.03-6.39,1.81-9.64,2.44c-1.86,0.36-3.72,0.67-5.6,0.94c-0.27,0.04-0.54,0.08-0.81,0.12
				c-0.91,0.13,0.61-0.08-0.31,0.04c-0.47,0.06-0.94,0.12-1.41,0.18c-1.18,0.14-2.36,0.27-3.54,0.39
				c-4.48,0.45-9.03,0.45-13.49,1.02c-5.97,0.76-11.48,3.47-14.68,8.74c-2.88,4.73-3.45,10.61-2.83,16.02
				c1.57,13.64,9.01,26.74,18.76,36.24c10.15,9.89,24.34,16.3,38.57,12.32c1.92-0.54,3.88-1.22,5.66-2.13
				c1.85-0.94,3.44-2.86,4.73-4.46c2.64-3.29,4.63-7.03,5.65-11.14c1.9-7.61,0.61-15.57-2.5-22.66
				c-4.83-10.98-18.2-24.98-31.32-17.97c-3.06,1.64-5.44,4.37-7.22,7.3c-2.01,3.31,3.18,6.33,5.18,3.03
				c0.25-0.41,0.51-0.82,0.79-1.22c0.13-0.18,0.84-1.09,0.35-0.5c0.5-0.61,1.02-1.2,1.59-1.74c0.29-0.28,0.6-0.53,0.91-0.79
				c0.13-0.12,0.45-0.29-0.15,0.11c0.16-0.11,0.31-0.22,0.47-0.33c0.56-0.38,1.17-0.67,1.76-1c0.56-0.31-0.66,0.22-0.06,0.02
				c0.14-0.05,0.28-0.1,0.41-0.15c0.3-0.11,0.61-0.2,0.92-0.28c0.28-0.07,0.56-0.12,0.85-0.18c0.22-0.05,0.82-0.06-0.11,0.01
				c0.17-0.01,0.34-0.04,0.52-0.05c0.64-0.05,1.28-0.05,1.91,0c0.12,0.01,0.23,0.03,0.35,0.03c0.64,0.02-0.73-0.14-0.1-0.02
				c0.35,0.07,0.7,0.12,1.05,0.2c0.65,0.15,1.3,0.34,1.93,0.57c0.22,0.08,1.17,0.5,0.33,0.11c0.35,0.16,0.7,0.32,1.04,0.49
				c1.32,0.66,2.55,1.47,3.74,2.36c-0.68-0.51,0.22,0.18,0.38,0.32c0.3,0.25,0.6,0.51,0.89,0.77c0.62,0.56,1.22,1.15,1.79,1.75
				c0.54,0.57,1.06,1.16,1.55,1.76c0.13,0.16,0.91,1.17,0.45,0.55c0.28,0.37,0.55,0.74,0.81,1.11c0.99,1.4,1.88,2.88,2.67,4.4
				c0.37,0.7,0.7,1.42,1.03,2.14c0.05,0.11,0.36,0.85,0.07,0.16c0.09,0.22,0.18,0.44,0.27,0.66c0.18,0.45,0.34,0.89,0.5,1.35
				c0.58,1.66,1.04,3.36,1.37,5.09c0.07,0.39,0.14,0.79,0.2,1.18c0.02,0.13,0.11,0.94,0.03,0.15c0.02,0.16,0.04,0.32,0.06,0.48
				c0.09,0.95,0.17,1.9,0.18,2.86c0.01,0.8-0.01,1.59-0.06,2.39c-0.03,0.4-0.07,0.79-0.1,1.19c-0.01,0.14-0.14,0.93-0.01,0.15
				c-0.05,0.32-0.1,0.63-0.15,0.95c-0.31,1.72-0.8,3.38-1.44,5c-0.18,0.46,0.31-0.64-0.03,0.08c-0.11,0.22-0.2,0.45-0.31,0.68
				c-0.18,0.38-0.37,0.75-0.57,1.12c-0.47,0.86-0.99,1.7-1.55,2.5c-0.13,0.18-0.26,0.35-0.38,0.53c-0.5,0.7,0.38-0.44-0.18,0.23
				c-0.29,0.35-0.57,0.69-0.87,1.03c-0.68,0.76-1.4,1.49-2.15,2.18c-0.13,0.12-0.76,0.45-0.27,0.21c-0.22,0.11-0.45,0.21-0.68,0.31
				c-0.15,0.07-0.3,0.13-0.45,0.2c0.67-0.29-0.08,0.03-0.18,0.07c-0.82,0.31-1.64,0.61-2.47,0.86c-0.81,0.25-1.63,0.46-2.46,0.64
				c-0.37,0.08-0.74,0.15-1.11,0.22c-0.23,0.04-1.62,0.22-0.76,0.13c-1.61,0.18-3.21,0.27-4.83,0.21c-0.8-0.03-1.59-0.1-2.38-0.18
				c-0.89-0.09,0.4,0.08-0.49-0.07c-0.43-0.07-0.85-0.14-1.28-0.23c-1.56-0.31-3.09-0.73-4.59-1.25c-0.34-0.12-0.68-0.24-1.02-0.37
				c-0.21-0.08-1.46-0.6-0.7-0.27c-0.74-0.32-1.47-0.66-2.19-1.02c-1.46-0.73-2.87-1.55-4.24-2.44c-0.66-0.43-1.31-0.88-1.95-1.34
				c-0.34-0.24-0.67-0.49-1-0.74c0.61,0.46-0.47-0.38-0.64-0.51c-2.62-2.13-5.04-4.5-7.25-7.05c-0.51-0.58-1-1.18-1.49-1.78
				c-0.15-0.18-0.29-0.36-0.43-0.54c-0.01-0.01-0.48-0.62-0.19-0.24c0.29,0.37-0.18-0.23-0.19-0.25c-0.19-0.25-0.37-0.49-0.55-0.74
				c-1-1.36-1.95-2.77-2.84-4.2c-0.88-1.42-1.71-2.87-2.48-4.35c-0.34-0.66-0.68-1.33-1-2.01c-0.16-0.33-0.32-0.67-0.47-1.01
				c-0.09-0.2-0.18-0.4-0.27-0.61c-0.03-0.07-0.38-0.88-0.2-0.45c0.19,0.45-0.09-0.21-0.1-0.25c-0.08-0.2-0.16-0.4-0.25-0.61
				c-0.13-0.34-0.26-0.67-0.39-1.01c-0.29-0.77-0.56-1.54-0.81-2.32c-0.46-1.41-0.86-2.84-1.19-4.28c-0.16-0.71-0.31-1.43-0.44-2.15
				c-0.06-0.32-0.11-0.64-0.16-0.97c-0.03-0.19-0.11-0.88,0,0.03c-0.02-0.19-0.05-0.38-0.07-0.57c-0.16-1.35-0.24-2.71-0.22-4.07
				c0.01-0.65,0.03-1.3,0.09-1.94c0.02-0.29,0.05-0.57,0.08-0.86c0.02-0.21,0.14-0.83-0.02,0.12c0.03-0.17,0.05-0.33,0.08-0.5
				c0.2-1.18,0.49-2.35,0.9-3.48c0.09-0.25,0.19-0.49,0.29-0.74c-0.36,0.98,0.03-0.05,0.15-0.28c0.25-0.51,0.53-1.01,0.83-1.48
				c0.14-0.22,0.29-0.43,0.43-0.64c0.09-0.13,0.18-0.25,0.27-0.37c-0.54,0.76-0.23,0.28-0.09,0.13c0.38-0.42,0.75-0.85,1.16-1.24
				c0.19-0.18,0.39-0.35,0.58-0.52c0.12-0.1,0.25-0.2,0.36-0.3c-0.65,0.55-0.35,0.26-0.17,0.13c0.52-0.35,1.02-0.7,1.57-1
				c0.24-0.13,0.49-0.26,0.74-0.38c0.15-0.07,0.31-0.14,0.46-0.22c0.54-0.27-0.55,0.17-0.16,0.07c0.66-0.18,1.29-0.48,1.94-0.66
				c0.61-0.17,1.23-0.31,1.85-0.43c0.23-0.04,1.53-0.21,0.58-0.11c0.41-0.05,0.83-0.09,1.24-0.13c2.33-0.18,4.67-0.26,7-0.43
				c4.52-0.34,9.03-0.82,13.51-1.5c6.23-0.94,12.48-2.29,18.33-4.69c4.32-1.78,8.43-4.07,11.77-7.37c2.67-2.65,4.62-5.81,6.04-9.27
				c2.35-5.73,2.87-11.99,4.86-17.83c0.13-0.37,0.26-0.74,0.4-1.11c0.06-0.17,0.13-0.33,0.19-0.5c0.04-0.1,0.08-0.2,0.12-0.3
				c0.2-0.51-0.06,0.26-0.14,0.32c0.2-0.15,0.37-0.84,0.49-1.09c0.17-0.36,0.35-0.72,0.54-1.08c0.39-0.72,0.81-1.43,1.26-2.11
				c0.23-0.35,0.49-0.69,0.73-1.03c0.39-0.56-0.49,0.59-0.04,0.05c0.15-0.18,0.3-0.37,0.45-0.55c0.58-0.69,1.2-1.35,1.86-1.97
				c0.34-0.33,0.7-0.65,1.06-0.96c0.17-0.14,0.34-0.29,0.51-0.43c0.2-0.16,1.03-0.76,0.14-0.12c1.82-1.3,3.67-2.48,5.68-3.48
				c0.51-0.25,1.03-0.5,1.54-0.73c0.32-0.15,0.65-0.29,0.98-0.43c-0.8,0.35,0.18-0.07,0.47-0.18c1.34-0.53,2.7-1.01,4.08-1.45
				c3.24-1.03,6.54-1.82,9.87-2.48c1.95-0.38,3.91-0.72,5.88-1.01c0.48-0.07,0.95-0.14,1.43-0.21c-0.06,0.01,0.9-0.12,0.48-0.07
				c-0.42,0.06,0.55-0.07,0.49-0.06c1.17-0.15,2.35-0.29,3.53-0.42c5.04-0.55,10.11-0.91,15.18-1.15
				c6.03-0.28,12.06-0.39,18.09-0.39C1067.95,218.87,1067.96,212.87,1064.09,212.87L1064.09,212.87z"/>
		</g>
	</g>
	<g>
		<g>
			<path class="st8" d="M1082.73,279.17c-12.4-3.98-25.37-7.33-38.46-7.68c-8.35-0.22-17,0.98-24.37,5.13
				c-6,3.38-10.67,8.63-13.98,14.62c-3.41,6.18-5.58,13-7.45,19.78c-1.96,7.11-3.59,14.31-5.75,21.36c-0.53,1.74-1.1,3.47-1.71,5.18
				c-0.31,0.87-0.63,1.73-0.96,2.58c-0.16,0.41-0.32,0.82-0.49,1.23c-0.09,0.22-0.18,0.44-0.27,0.65c-0.16,0.39,0.26-0.59-0.04,0.1
				c-1.42,3.29-3.06,6.48-5.02,9.48c-0.49,0.75-1.01,1.49-1.54,2.21c-0.14,0.19-0.28,0.37-0.42,0.56c-0.31,0.41,0.44-0.55-0.01,0.01
				c-0.29,0.36-0.58,0.73-0.88,1.08c-1.17,1.39-2.43,2.71-3.77,3.94c-0.68,0.63-1.39,1.23-2.11,1.81c-0.09,0.07-0.67,0.52-0.27,0.21
				c0.38-0.29-0.17,0.13-0.28,0.21c-0.39,0.29-0.79,0.58-1.2,0.86c-2.17,1.5-4.46,2.75-6.54,4.39c-4.49,3.55-7.73,8.41-9.42,13.87
				c-1.72,5.54-1.87,11.52-1.33,17.26c1.32,13.97,5.93,27.43,9.8,40.83c2.01,6.96,3.93,13.95,5.29,21.07
				c0.68,3.55,1.12,6.4,1.43,9.86c0.32,3.7,0.31,7.42,0.42,11.14c0.24,7.76,1.03,15.81,5.23,22.55
				c4.35,6.98,11.77,11.76,19.39,14.53c14.59,5.29,30.54,1.75,44.21-4.5c7.12-3.25,13.84-7.35,20.18-11.92
				c5.96-4.31,12.26-8.9,16.78-14.76c8.65-11.19,9.97-26,6.32-39.35c-3.66-13.39-11.88-25.37-23.12-33.51
				c-8.13-5.88-17.85-10.35-28.04-10.45c-7.86-0.07-15.49,2.7-21.36,7.93c-5.21,4.64-8.85,11.25-9.95,18.14
				c-1.16,7.31,0.17,14.86,4.24,21.1c4.98,7.64,13.06,12.47,21.67,15.04c5.53,1.65,11.32,2.4,17.07,2.65c1.62,0.07,3-1.43,3-3
				c0-1.68-1.37-2.93-3-3c-1.54-0.07-3.08-0.17-4.62-0.32c-1.77-0.18-2.19-0.23-3.79-0.5c-2.59-0.43-5.16-1.02-7.67-1.8
				c-1.15-0.36-2.28-0.75-3.4-1.2c-0.11-0.04-0.87-0.35-0.5-0.2c0.34,0.14-0.34-0.15-0.48-0.21c-0.54-0.24-1.08-0.5-1.61-0.76
				c-1.87-0.93-3.67-2.01-5.35-3.25c-0.09-0.07-0.7-0.53-0.33-0.24c0.35,0.27-0.2-0.16-0.31-0.25c-0.4-0.32-0.79-0.66-1.17-1
				c-0.67-0.6-1.31-1.23-1.92-1.89c-0.31-0.33-0.61-0.67-0.9-1.02c-0.13-0.16-0.27-0.32-0.4-0.48c-0.06-0.07-0.11-0.14-0.17-0.21
				c-0.39-0.48,0.29,0.42,0.09,0.12c-0.48-0.73-1.01-1.42-1.47-2.16c-0.44-0.73-0.85-1.47-1.22-2.24c-0.18-0.38-0.34-0.76-0.52-1.14
				c0.41,0.87-0.1-0.29-0.22-0.6c-0.56-1.53-0.98-3.12-1.24-4.73c-0.03-0.19-0.05-0.37-0.09-0.56c0.08,0.48,0.06,0.53,0.01,0.08
				c-0.05-0.43-0.09-0.85-0.12-1.28c-0.05-0.8-0.07-1.6-0.05-2.41c0.02-0.77,0.07-1.55,0.15-2.31c0.02-0.21,0.06-0.42,0.08-0.64
				c-0.03,0.43-0.09,0.6-0.01,0.09c0.07-0.39,0.13-0.79,0.21-1.18c0.31-1.57,0.76-3.11,1.33-4.6c0.08-0.2,0.16-0.4,0.24-0.6
				c0.17-0.47-0.31,0.69-0.02,0.05c0.17-0.36,0.33-0.73,0.5-1.09c0.35-0.72,0.73-1.43,1.15-2.12c0.41-0.69,0.85-1.36,1.32-2.02
				c0.11-0.15,0.22-0.3,0.33-0.46c0.4-0.57-0.35,0.41-0.03,0.03c0.28-0.33,0.54-0.67,0.82-1c1.07-1.23,2.24-2.36,3.5-3.4
				c0.09-0.08,0.63-0.51,0.21-0.17c-0.4,0.32,0.11-0.08,0.22-0.16c0.36-0.26,0.71-0.51,1.08-0.76c0.69-0.46,1.41-0.89,2.14-1.29
				c0.75-0.4,1.51-0.75,2.28-1.1c-0.86,0.4,0.26-0.1,0.56-0.21c0.41-0.15,0.82-0.29,1.23-0.42c0.84-0.27,1.69-0.5,2.55-0.68
				c0.44-0.1,0.88-0.18,1.32-0.26c0.21-0.04,0.42-0.07,0.63-0.1c0.68-0.11-0.58,0.05,0.11-0.01c1.91-0.18,3.8-0.26,5.72-0.13
				c0.47,0.03,0.93,0.07,1.4,0.12c0.24,0.03,0.47,0.06,0.71,0.08c-0.91-0.11,0.13,0.02,0.33,0.06c1.05,0.17,2.1,0.38,3.13,0.64
				c1.09,0.27,2.17,0.59,3.23,0.94c0.52,0.17,1.03,0.36,1.54,0.55c0.26,0.1,0.52,0.2,0.78,0.3c0.15,0.06,0.3,0.12,0.45,0.18
				c0.54,0.21-0.27-0.12,0.07,0.03c2.34,1.02,4.6,2.18,6.78,3.5c2.37,1.43,5.02,3.26,6.84,4.74c5.12,4.16,9.07,8.92,12.36,14.46
				c3.37,5.68,5.63,11.44,6.88,18.03c0.56,2.94,0.83,5.85,0.78,9.17c-0.06,3.31-0.35,5.61-1.17,8.78
				c-1.58,6.12-4.7,11.46-9.35,15.87c-5.16,4.9-10.89,9.1-16.84,12.99c-12.04,7.87-26.06,14.48-40.46,14.56
				c-6.86,0.04-13.57-1.53-19.6-4.98c-3.25-1.86-6.31-4.09-8.7-6.98c-2.24-2.71-3.61-5.8-4.49-9.11c-1.84-6.94-1.29-14.33-1.73-21.6
				c-0.42-6.87-1.68-13.69-3.27-20.37c-3.25-13.67-7.98-26.95-11.16-40.64c-0.73-3.12-1.36-6.27-1.84-9.44
				c-0.03-0.19-0.14-0.95-0.12-0.82c0.04,0.3-0.02-0.2-0.03-0.21c-0.03-0.2-0.05-0.4-0.07-0.6c-0.09-0.79-0.18-1.59-0.24-2.38
				c-0.12-1.45-0.2-2.89-0.22-4.34c-0.02-1.34,0.02-2.69,0.12-4.03c0.05-0.67,0.12-1.34,0.2-2.01c-0.07,0.59,0.03-0.19,0.06-0.39
				c0.06-0.35,0.12-0.69,0.18-1.04c0.25-1.27,0.56-2.52,0.97-3.75c0.2-0.6,0.42-1.2,0.66-1.79c-0.22,0.54,0.07-0.14,0.15-0.33
				c0.14-0.31,0.29-0.61,0.44-0.91c0.58-1.14,1.26-2.21,2-3.25c0.38-0.54-0.08,0.07,0.24-0.32c0.2-0.23,0.39-0.47,0.59-0.7
				c0.46-0.53,0.95-1.05,1.46-1.54c0.46-0.45,0.93-0.87,1.42-1.28c0.25-0.21,0.5-0.42,0.76-0.62c-0.38,0.3,0.01,0,0.07-0.05
				c0.19-0.14,0.39-0.28,0.59-0.42c1.03-0.72,2.12-1.34,3.18-2.01c3.2-2.01,6.17-4.43,8.76-7.19c5.1-5.43,8.67-11.96,11.43-18.83
				c2.66-6.64,4.49-13.57,6.27-20.48c1.73-6.73,3.38-13.5,5.79-20.03c0.29-0.78,0.59-1.55,0.9-2.32c0.07-0.18,0.15-0.35,0.22-0.53
				c0.27-0.66-0.22,0.5-0.02,0.04c0.18-0.4,0.35-0.8,0.52-1.19c0.66-1.46,1.37-2.89,2.16-4.28c0.77-1.36,1.61-2.68,2.52-3.95
				c0.2-0.28,0.84-1.09,0.27-0.38c0.26-0.32,0.51-0.64,0.77-0.96c0.49-0.59,1-1.16,1.54-1.72c0.53-0.56,1.09-1.09,1.66-1.61
				c0.27-0.24,0.54-0.48,0.82-0.71c0.14-0.12,0.28-0.23,0.42-0.35c0.12-0.09,0.67-0.52,0.25-0.2c-0.44,0.33,0.1-0.07,0.2-0.14
				c0.17-0.12,0.34-0.25,0.51-0.37c0.32-0.23,0.65-0.45,0.98-0.67c0.68-0.44,1.37-0.85,2.08-1.24c0.73-0.4,1.48-0.76,2.24-1.1
				c0.42-0.19,0.43-0.18-0.01,0c0.21-0.08,0.42-0.17,0.64-0.26c0.41-0.16,0.81-0.31,1.23-0.46c1.74-0.61,3.53-1.09,5.34-1.45
				c0.45-0.09,0.9-0.17,1.35-0.25c0.23-0.04,0.46-0.07,0.69-0.11c0.13-0.02,0.27-0.04,0.4-0.06c0.57-0.09-0.48,0.06-0.09,0.01
				c1.05-0.12,2.1-0.23,3.16-0.3c2.27-0.15,4.55-0.17,6.82-0.08c2.61,0.1,5.21,0.35,7.81,0.66c0.6,0.07,0.16,0.02,0.03,0
				c0.19,0.02,0.37,0.05,0.56,0.08c0.33,0.05,0.66,0.09,0.99,0.14c0.72,0.11,1.45,0.22,2.17,0.35c1.51,0.26,3.02,0.54,4.52,0.85
				c6.74,1.39,13.38,3.25,19.93,5.35c1.54,0.5,3.27-0.58,3.69-2.1C1085.27,281.24,1084.28,279.67,1082.73,279.17L1082.73,279.17z"/>
		</g>
	</g>
	<g>
		<g>
			<path class="st10" d="M737.94,155.85c-7.53-8.5-12.94-18.72-15.83-29.69c-0.98-3.73-6.77-2.15-5.79,1.6
				c3.16,11.99,9.15,23.07,17.37,32.34c1.08,1.21,3.15,1.1,4.24,0C739.14,158.89,739.01,157.07,737.94,155.85L737.94,155.85z"/>
		</g>
	</g>
	<g>
		<g>
			<path class="st10" d="M741.63,136.86c-0.47-4.91-0.95-9.81-1.42-14.72c-0.15-1.56-1.27-3.08-3-3c-1.5,0.07-3.16,1.33-3,3
				c0.47,4.91,0.95,9.81,1.42,14.72c0.15,1.56,1.27,3.08,3,3C740.13,139.79,741.79,138.53,741.63,136.86L741.63,136.86z"/>
		</g>
	</g>
	<g>
		<g>
			<path class="st10" d="M970.22,519.84c12.37,9.64,26.27,20.08,42.87,18.83c4.48-0.34,8.79-1.51,12.73-3.68
				c3.38-1.86,0.36-7.05-3.03-5.18c-12.66,6.98-27.43,0.68-38.28-6.73c-3.45-2.35-6.75-4.91-10.05-7.47c-1.28-0.99-3-1.25-4.24,0
				C969.18,516.64,968.93,518.84,970.22,519.84L970.22,519.84z"/>
		</g>
	</g>
	<g>
		<g>
			<path class="st10" d="M1005.1,407.62c2.07-5.12,7.28-8.85,12.48-10.62c7.28-2.48,15.12-2.03,22.68-1.55c1.62,0.1,3-1.45,3-3
				c0-1.71-1.38-2.9-3-3c-8.41-0.54-17.31-0.93-25.32,2.14c-6.95,2.66-12.79,7.43-15.62,14.43c-0.61,1.5,0.66,3.3,2.1,3.69
				C1003.13,410.19,1004.5,409.13,1005.1,407.62L1005.1,407.62z"/>
		</g>
	</g>
	<g>
		<g>
			<path class="st10" d="M948.17,214.76c12.39-12.68,28.66-21.17,46.08-24.36c4.86-0.89,9.78-1.3,14.72-1.31
				c3.86-0.01,3.87-6.01,0-6c-18.76,0.03-37.49,6.05-52.76,16.95c-4.39,3.13-8.51,6.62-12.28,10.48
				C941.22,213.28,945.46,217.53,948.17,214.76L948.17,214.76z"/>
		</g>
	</g>
	<g>
		<g>
			<path class="st10" d="M981.49,284.15c9.59-4.85,16.86-13.93,19.58-24.32c0.41-1.57-0.52-3.26-2.1-3.69
				c-1.55-0.43-3.28,0.52-3.69,2.1c-2.35,8.98-8.46,16.51-16.82,20.73c-1.45,0.73-1.86,2.77-1.08,4.1
				C978.25,284.54,980.04,284.88,981.49,284.15L981.49,284.15z"/>
		</g>
	</g>
	<g>
		<g>
			<path class="st10" d="M776.52,153.61c6.07,14.38,16.91,26.66,30.23,34.76c3.8,2.31,7.82,4.23,11.96,5.84
				c1.51,0.59,3.29-0.65,3.69-2.1c0.47-1.7-0.58-3.1-2.1-3.69c-13.3-5.16-24.96-14.79-32.74-26.77c-2.28-3.51-4.24-7.22-5.87-11.08
				c-0.63-1.49-2.84-1.82-4.1-1.08C776.05,150.41,775.88,152.11,776.52,153.61L776.52,153.61z"/>
		</g>
	</g>
	<g>
		<g>
			<path class="st10" d="M894.15,286.02c-0.36-1.95,0.11-4.23,1.12-6.13c1.14-2.14,2.8-4.03,4.77-5.37
				c4.77-3.25,10.59-4.32,16.16-5.41c1.59-0.31,2.5-2.21,2.1-3.69c-0.46-1.66-2.09-2.41-3.69-2.1c-6.63,1.29-13.5,2.77-18.94,7.02
				c-5.26,4.11-8.54,10.56-7.3,17.27c0.29,1.59,2.23,2.5,3.69,2.1C893.73,289.25,894.44,287.62,894.15,286.02L894.15,286.02z"/>
		</g>
	</g>
</g>
</svg>
