<?xml version="1.0" encoding="utf-8"?>
<!-- Generator: Adobe Illustrator 24.0.1, SVG Export Plug-In . SVG Version: 6.00 Build 0)  -->
<svg version="1.1" id="Layer_1" xmlns="http://www.w3.org/2000/svg" xmlns:xlink="http://www.w3.org/1999/xlink" x="0px" y="0px"
	 viewBox="0 0 1280 1024" style="enable-background:new 0 0 1280 1024;" xml:space="preserve">
<style type="text/css">
	.st0{fill:#39B54A;}
	.st1{fill:#FFFFFF;}
</style>
<g>
	<g>
		<path class="st0" d="M250.88,511.31h-35.92v47.97h41.85l-3.74,27.45h-68.73v-169.4h68.48v27.65h-37.86v38.88h35.92V511.31z"/>
		<path class="st0" d="M269.55,586.73v-169.4h34.47c5.71,21.21,23.78,100.52,25.21,108.04h0.54c-1.55-21.47-2.16-48.98-2.16-74.64
			v-33.4h28.29v169.4h-34.04c-3.89-16.53-24.09-106.64-25.27-112.01H296c1.27,20.23,1.67,48.28,1.67,76.71v35.3H269.55z"/>
		<path class="st0" d="M395.57,586.73l-27.44-169.4h32.76l7.16,64.74c2.42,22.16,5.39,45.77,6.72,66.62h0.93
			c1.29-20.23,4.42-43.25,6.58-66.25l6.39-65.1H461l-26.75,169.4H395.57z"/>
		<path class="st0" d="M503.93,417.33v169.4h-30.57v-169.4H503.93z"/>
		<path class="st0" d="M555.89,512.53v74.2h-30.57v-169.4h40.26c27.19,0,42.15,11.37,42.15,41.73v6.09
			c0,25.44-10.48,31.98-17.07,34.99c10.11,4.96,15.48,12.28,15.48,35.65c0,15.33-0.25,41.45,1.33,50.94h-29.56
			c-2.19-8.84-1.87-33.54-1.87-50.8c0-19.64-2.35-23.39-15.85-23.39H555.89z M555.94,487.97h4.29c11.98,0,16.84-3.73,16.84-20.8
			v-6.83c0-11.87-2.28-18.45-15.32-18.45h-5.8V487.97z"/>
		<path class="st0" d="M707.75,462.92v78c0,33.43-15.05,48.34-44.69,48.34c-28,0-41.86-15.1-41.86-47.93v-79
			c0-33.07,17.63-47.55,43.49-47.55C690.76,414.79,707.75,428.9,707.75,462.92z M652.23,459.55v85.57
			c0,11.52,4.05,17.39,12.09,17.39c8.56,0,12.3-5.37,12.3-17.6V459.3c0-11.34-3.22-17.55-12.34-17.55
			C656.54,441.75,652.23,447.39,652.23,459.55z"/>
		<path class="st0" d="M725.78,586.73v-169.4h34.47c5.71,21.21,23.78,100.52,25.21,108.04h0.54c-1.55-21.47-2.16-48.98-2.16-74.64
			v-33.4h28.29v169.4h-34.04c-3.89-16.53-24.09-106.64-25.27-112.01h-0.58c1.27,20.23,1.67,48.28,1.67,76.71v35.3H725.78z"/>
		<path class="st1" d="M914.35,506.5c0-33.79,0.58-64.57,1.09-81.14h-0.25c-4.45,26.38-20.96,107.15-32.11,161.37h-8.95
			c-8.61-44.88-25.94-133.31-30.19-161.25h-0.45c0.51,19.54,1.34,58.23,1.34,87.09v74.16h-8.13V417.35h11.96
			c12.42,60.3,28.15,138.62,30.13,156.04h0.25c2-15.8,19.06-98.52,31.4-156.04h12.28v169.38h-8.38V506.5z"/>
		<path class="st1" d="M958.82,417.35v169.38h-8.19V417.35H958.82z"/>
		<path class="st1" d="M985.14,542.57v8.54c0,19.66,6.94,30.17,21.37,30.17c14.93,0,21.38-9.13,21.38-35.35
			c0-22.23-4.7-32.3-22.09-45.87c-17.6-13.78-25.68-22.06-25.68-47.11c0-20.61,6.21-37.82,27.16-37.62
			c18.24,0.19,26.26,11.04,26.26,35.31v6.6h-8.19v-6.4c0-17.33-3.91-28.02-18.33-28.02c-14.55,0-18.72,12.65-18.72,28.91
			c0,20.33,3.94,27.08,20.18,39.89c21.09,16.57,27.59,26.05,27.59,53.54c0,22.94-4.41,43.61-29.43,43.61
			c-23.33,0-29.7-17.11-29.7-37.94v-8.25H985.14z"/>
		<path class="st1" d="M1068.66,424.84h-27.06v-7.49h61.92v7.49h-26.67v161.89h-8.19V424.84z"/>
	</g>
</g>
</svg>
